<?xml version="1.0" encoding="utf-8"?><!DOCTYPE svg PUBLIC "-//W3C//DTD SVG 1.1//EN" "http://www.w3.org/Graphics/SVG/1.1/DTD/svg11.dtd"><svg width="240" height="240" viewBox="0 0 240 240" xmlns="http://www.w3.org/2000/svg" xmlns:xlink="http://www.w3.org/1999/xlink"><view id="appstore" viewBox="60 0 60 23.41"/><svg width="60" height="23.41" viewBox="-10.38 -10.38 155.77 60.77" x="60" xmlns="http://www.w3.org/2000/svg"><path fill="#A6A6A6" d="M130.197 40H4.729A4.74 4.74 0 0 1 0 35.267V4.726A4.733 4.733 0 0 1 4.729 0h125.468C132.803 0 135 2.12 135 4.726v30.541c0 2.605-2.197 4.733-4.803 4.733z"/><path d="M134.032 35.268a3.83 3.83 0 0 1-3.834 3.83H4.729a3.835 3.835 0 0 1-3.839-3.83V4.725A3.84 3.84 0 0 1 4.729.89h125.468a3.834 3.834 0 0 1 3.834 3.835l.001 30.543z"/><g fill="#FFF"><path d="M30.128 19.784c-.029-3.223 2.639-4.791 2.761-4.864-1.511-2.203-3.853-2.504-4.676-2.528-1.967-.207-3.875 1.177-4.877 1.177-1.022 0-2.565-1.157-4.228-1.123-2.14.033-4.142 1.272-5.24 3.196-2.266 3.923-.576 9.688 1.595 12.859 1.086 1.553 2.355 3.287 4.016 3.226 1.625-.067 2.232-1.036 4.193-1.036 1.943 0 2.513 1.036 4.207.997 1.744-.028 2.842-1.56 3.89-3.127 1.255-1.78 1.759-3.533 1.779-3.623-.041-.014-3.387-1.291-3.42-5.154zM26.928 10.306c.874-1.093 1.472-2.58 1.306-4.089-1.265.056-2.847.875-3.758 1.944-.806.942-1.526 2.486-1.34 3.938 1.421.106 2.88-.717 3.792-1.793z"/></g><g fill="#FFF"><path d="M53.645 31.504h-2.271l-1.244-3.909h-4.324l-1.185 3.909H42.41l4.284-13.308h2.646l4.305 13.308zm-3.89-5.549L48.63 22.48c-.119-.355-.342-1.191-.671-2.507h-.04a96.75 96.75 0 0 1-.632 2.507l-1.105 3.475h3.573zM64.662 26.588c0 1.632-.441 2.922-1.323 3.869-.79.843-1.771 1.264-2.942 1.264-1.264 0-2.172-.454-2.725-1.362h-.04v5.055H55.5V25.067c0-1.026-.027-2.079-.079-3.159h1.875l.119 1.521h.04c.711-1.146 1.79-1.718 3.238-1.718 1.132 0 2.077.447 2.833 1.342.758.896 1.136 2.074 1.136 3.535zm-2.172.078c0-.934-.21-1.704-.632-2.31-.461-.632-1.08-.948-1.856-.948-.526 0-1.004.176-1.431.523-.428.35-.708.807-.839 1.373-.066.264-.099.48-.099.65v1.6c0 .698.214 1.287.642 1.768s.984.721 1.668.721c.803 0 1.428-.31 1.875-.928.448-.619.672-1.435.672-2.449zM75.699 26.588c0 1.632-.441 2.922-1.324 3.869-.789.843-1.77 1.264-2.941 1.264-1.264 0-2.172-.454-2.724-1.362h-.04v5.055h-2.132V25.067c0-1.026-.027-2.079-.079-3.159h1.875l.119 1.521h.04c.71-1.146 1.789-1.718 3.238-1.718 1.131 0 2.076.447 2.834 1.342.755.896 1.134 2.074 1.134 3.535zm-2.172.078c0-.934-.211-1.704-.633-2.31-.461-.632-1.078-.948-1.855-.948a2.22 2.22 0 0 0-1.432.523c-.428.35-.707.807-.838 1.373-.065.264-.099.48-.099.65v1.6c0 .698.214 1.287.64 1.768.428.48.984.721 1.67.721.803 0 1.428-.31 1.875-.928.448-.619.672-1.435.672-2.449zM88.039 27.772c0 1.132-.393 2.053-1.182 2.764-.867.777-2.074 1.165-3.625 1.165-1.432 0-2.58-.276-3.449-.829l.494-1.777c.936.566 1.963.85 3.082.85.803 0 1.428-.182 1.877-.544.447-.362.67-.848.67-1.454 0-.54-.184-.995-.553-1.364-.367-.369-.98-.712-1.836-1.029-2.33-.869-3.494-2.142-3.494-3.816 0-1.094.408-1.991 1.225-2.689.814-.699 1.9-1.048 3.258-1.048 1.211 0 2.217.211 3.02.632l-.533 1.738c-.75-.408-1.598-.612-2.547-.612-.75 0-1.336.185-1.756.553a1.58 1.58 0 0 0-.533 1.205c0 .526.203.961.611 1.303.355.316 1 .658 1.936 1.027 1.145.461 1.986 1 2.527 1.618.539.616.808 1.387.808 2.307zM95.088 23.508h-2.35v4.659c0 1.185.414 1.777 1.244 1.777.381 0 .697-.033.947-.099l.059 1.619c-.42.157-.973.236-1.658.236-.842 0-1.5-.257-1.975-.77-.473-.514-.711-1.376-.711-2.587v-4.837h-1.4v-1.6h1.4v-1.757l2.094-.632v2.389h2.35v1.602zM105.691 26.627c0 1.475-.422 2.686-1.264 3.633-.883.975-2.055 1.461-3.516 1.461-1.408 0-2.529-.467-3.365-1.401s-1.254-2.113-1.254-3.534c0-1.487.43-2.705 1.293-3.652.861-.948 2.023-1.422 3.484-1.422 1.408 0 2.541.467 3.396 1.402.818.907 1.226 2.078 1.226 3.513zm-2.212.069c0-.885-.189-1.644-.572-2.277-.447-.766-1.086-1.148-1.914-1.148-.857 0-1.508.383-1.955 1.148-.383.634-.572 1.405-.572 2.317 0 .885.189 1.644.572 2.276.461.766 1.105 1.148 1.936 1.148.814 0 1.453-.39 1.914-1.168.393-.645.591-1.412.591-2.296zM112.621 23.783a3.702 3.702 0 0 0-.672-.059c-.75 0-1.33.283-1.738.85-.355.5-.533 1.132-.533 1.895v5.035h-2.131l.02-6.574c0-1.106-.027-2.113-.08-3.021h1.857l.078 1.836h.059c.225-.631.58-1.139 1.066-1.52a2.578 2.578 0 0 1 1.541-.514c.197 0 .375.014.533.039v2.033zM122.156 26.252a5 5 0 0 1-.078.967h-6.396c.025.948.334 1.673.928 2.173.539.447 1.236.671 2.092.671.947 0 1.811-.151 2.588-.454l.334 1.48c-.908.396-1.98.593-3.217.593-1.488 0-2.656-.438-3.506-1.313-.848-.875-1.273-2.05-1.273-3.524 0-1.447.395-2.652 1.186-3.613.828-1.026 1.947-1.539 3.355-1.539 1.383 0 2.43.513 3.141 1.539.563.815.846 1.823.846 3.02zm-2.033-.553c.014-.632-.125-1.178-.414-1.639-.369-.593-.936-.889-1.699-.889-.697 0-1.264.289-1.697.869-.355.461-.566 1.014-.631 1.658h4.441z"/></g><g fill="#FFF"><path d="M49.05 10.009c0 1.177-.353 2.063-1.058 2.658-.653.549-1.581.824-2.783.824-.596 0-1.106-.026-1.533-.078V6.982c.557-.09 1.157-.136 1.805-.136 1.145 0 2.008.249 2.59.747.652.563.979 1.368.979 2.416zm-1.105.029c0-.763-.202-1.348-.606-1.756-.404-.407-.994-.611-1.771-.611-.33 0-.611.022-.844.068v4.889c.129.02.365.029.708.029.802 0 1.421-.223 1.857-.669s.656-1.096.656-1.95zM54.909 11.037c0 .725-.207 1.319-.621 1.785-.434.479-1.009.718-1.727.718-.692 0-1.243-.229-1.654-.689-.41-.459-.615-1.038-.615-1.736 0-.73.211-1.329.635-1.794s.994-.698 1.712-.698c.692 0 1.248.229 1.669.688.4.446.601 1.022.601 1.726zm-1.087.034c0-.435-.094-.808-.281-1.119-.22-.376-.533-.564-.94-.564-.421 0-.741.188-.961.564-.188.311-.281.69-.281 1.138 0 .435.094.808.281 1.119.227.376.543.564.951.564.4 0 .714-.191.94-.574.194-.317.291-.693.291-1.128zM62.765 8.719l-1.475 4.714h-.96l-.611-2.047a15.32 15.32 0 0 1-.379-1.523h-.019a11.15 11.15 0 0 1-.379 1.523l-.649 2.047h-.971l-1.387-4.714h1.077l.533 2.241c.129.53.235 1.035.32 1.513h.019c.078-.394.207-.896.389-1.503l.669-2.25h.854l.641 2.202c.155.537.281 1.054.378 1.552h.029c.071-.485.178-1.002.32-1.552l.572-2.202h1.029zM68.198 13.433H67.15v-2.7c0-.832-.316-1.248-.95-1.248a.946.946 0 0 0-.757.343 1.217 1.217 0 0 0-.291.808v2.796h-1.048v-3.366c0-.414-.013-.863-.038-1.349h.921l.049.737h.029c.122-.229.304-.418.543-.569.284-.176.602-.265.95-.265.44 0 .806.142 1.097.427.362.349.543.87.543 1.562v2.824zM71.088 13.433h-1.047V6.556h1.047v6.877zM77.258 11.037c0 .725-.207 1.319-.621 1.785-.434.479-1.01.718-1.727.718-.693 0-1.244-.229-1.654-.689-.41-.459-.615-1.038-.615-1.736 0-.73.211-1.329.635-1.794s.994-.698 1.711-.698c.693 0 1.248.229 1.67.688.4.446.601 1.022.601 1.726zm-1.088.034c0-.435-.094-.808-.281-1.119-.219-.376-.533-.564-.939-.564-.422 0-.742.188-.961.564-.188.311-.281.69-.281 1.138 0 .435.094.808.281 1.119.227.376.543.564.951.564.4 0 .713-.191.939-.574.195-.317.291-.693.291-1.128zM82.33 13.433h-.941l-.078-.543h-.029c-.322.433-.781.65-1.377.65-.445 0-.805-.143-1.076-.427a1.339 1.339 0 0 1-.369-.96c0-.576.24-1.015.723-1.319.482-.304 1.16-.453 2.033-.446V10.3c0-.621-.326-.931-.979-.931-.465 0-.875.117-1.229.349l-.213-.688c.438-.271.979-.407 1.617-.407 1.232 0 1.85.65 1.85 1.95v1.736c0 .471.023.846.068 1.124zm-1.088-1.62v-.727c-1.156-.02-1.734.297-1.734.95 0 .246.066.43.201.553a.733.733 0 0 0 .512.184c.23 0 .445-.073.641-.218a.893.893 0 0 0 .38-.742zM88.285 13.433h-.93l-.049-.757h-.029c-.297.576-.803.864-1.514.864-.568 0-1.041-.223-1.416-.669s-.562-1.025-.562-1.736c0-.763.203-1.381.611-1.853.395-.44.879-.66 1.455-.66.633 0 1.076.213 1.328.64h.02V6.556h1.049v5.607c0 .459.012.882.037 1.27zm-1.086-1.988v-.786a1.194 1.194 0 0 0-.408-.965 1.03 1.03 0 0 0-.701-.257c-.391 0-.697.155-.922.466-.223.311-.336.708-.336 1.193 0 .466.107.844.322 1.135.227.31.533.465.916.465.344 0 .619-.129.828-.388.202-.239.301-.527.301-.863zM97.248 11.037c0 .725-.207 1.319-.621 1.785-.434.479-1.008.718-1.727.718-.691 0-1.242-.229-1.654-.689-.41-.459-.615-1.038-.615-1.736 0-.73.211-1.329.635-1.794s.994-.698 1.713-.698c.691 0 1.248.229 1.668.688.4.446.601 1.022.601 1.726zm-1.086.034c0-.435-.094-.808-.281-1.119-.221-.376-.533-.564-.941-.564-.42 0-.74.188-.961.564-.188.311-.281.69-.281 1.138 0 .435.094.808.281 1.119.227.376.543.564.951.564.4 0 .715-.191.941-.574.193-.317.291-.693.291-1.128zM102.883 13.433h-1.047v-2.7c0-.832-.316-1.248-.951-1.248-.311 0-.562.114-.756.343s-.291.499-.291.808v2.796h-1.049v-3.366c0-.414-.012-.863-.037-1.349h.92l.049.737h.029a1.53 1.53 0 0 1 .543-.569c.285-.176.602-.265.951-.265.439 0 .805.142 1.096.427.363.349.543.87.543 1.562v2.824zM109.936 9.504h-1.154v2.29c0 .582.205.873.611.873.188 0 .344-.016.467-.049l.027.795c-.207.078-.479.117-.814.117-.414 0-.736-.126-.969-.378-.234-.252-.35-.676-.35-1.271V9.504h-.689v-.785h.689v-.864l1.027-.31v1.173h1.154v.786zM115.484 13.433h-1.049v-2.68c0-.845-.316-1.268-.949-1.268-.486 0-.818.245-1 .735a1.317 1.317 0 0 0-.049.377v2.835h-1.047V6.556h1.047v2.841h.02c.33-.517.803-.775 1.416-.775.434 0 .793.142 1.078.427.355.355.533.883.533 1.581v2.803zM121.207 10.853c0 .188-.014.346-.039.475h-3.143c.014.466.164.821.455 1.067.266.22.609.33 1.029.33.465 0 .889-.074 1.271-.223l.164.728c-.447.194-.973.291-1.582.291-.73 0-1.305-.215-1.721-.645-.418-.43-.625-1.007-.625-1.731 0-.711.193-1.303.582-1.775.406-.504.955-.756 1.648-.756.678 0 1.193.252 1.541.756.281.4.42.895.42 1.483zm-1-.271a1.411 1.411 0 0 0-.203-.805c-.182-.291-.459-.437-.834-.437a.995.995 0 0 0-.834.427 1.586 1.586 0 0 0-.311.815h2.182z"/></g></svg><view id="beautiful" viewBox="120 120 60 60"/><svg version="1.0" width="60" height="60" viewBox="-24.62 -24.62 289.23 289.23" x="120" y="120" xmlns="http://www.w3.org/2000/svg"><path d="M145.879 3.677c-27.932.012-56.45.065-81.006.104v184.971c31.658 28.714 31.896 29.407 53.563 47.498 30.964-25.99 32.439-26.856 55.011-46.808V3.68c-9.012-.007-18.258-.007-27.568-.003zm17.906 9.482l.032 15.608-89.852-.074.077-15.382 89.743-.152zm.047 24.06l.018 9.99-89.93-.723.483-8.625zM97.144 55.836l-.725 126.248-21.352.12-.724-126.308zm35.792-.153l-.385 126.039-25.274.482-.362-126.248zm30.898.26l-.34 125.96-21.27.082.038-125.969zM119.22 191.855c27.566 0 34.925.181 34.925.724 0 .422-1.327 1.75-2.895 2.896-1.569 1.146-3.861 3.015-5.068 4.161-1.266 1.146-2.895 2.473-3.619 2.956-.784.543-1.507 1.086-1.688 1.327-.181.18-2.051 1.81-4.223 3.62-2.111 1.809-4.403 3.8-5.066 4.343-1.026.965-2.594 1.085-12.486 1.085-6.213 0-11.4-.181-11.521-.483-.06-.24-1.69-1.628-3.5-3.136-1.809-1.508-3.437-2.835-3.618-3.016-.181-.181-1.266-1.025-2.412-1.87a143.372 143.372 0 0 1-3.62-2.955c-.844-.724-2.473-2.051-3.619-2.956-1.146-.844-2.654-2.05-3.318-2.714a26.212 26.212 0 0 0-2.533-1.99c-.784-.483-1.207-1.147-1.026-1.45.181-.3 15.502-.542 35.287-.542z" fill="#61dafb"/></svg><view id="bucket-list" viewBox="0 60 60 60"/><svg height="60" width="60" viewBox="-7.69 -7.69 48.72 48.72" y="60" xmlns="http://www.w3.org/2000/svg"><path d="M27.736 17.344c-1.154-2.28-2.48-4.388-3.16-5.43a13.13 13.13 0 0 0 2.044-.776l-.45 2.07a.757.757 0 1 0 1.481.32l.789-3.63c.566-.573.855-1.184.855-1.793 0-2.373-4.34-4.775-12.635-4.775S4.025 5.732 4.025 8.105c0 .604.284 1.21.842 1.78a.76.76 0 0 0 .014.122l3.703 16.949c.03.136.097.262.194.363 1.224 1.271 4.17 2.637 7.785 2.677h.193c3.615-.04 6.562-1.406 7.785-2.677a.748.748 0 0 0 .194-.365l.394-1.813c.728.755 1.416 1.037 1.917 1.131.154.03.307.043.458.043.464 0 .906-.135 1.278-.395 1.637-1.146 1.295-3.95-1.046-8.576zM8.504 5.982c2.167-.733 5.064-1.137 8.156-1.137 6.787 0 11.12 1.93 11.12 3.26 0 .23-.155.527-.516.852-.019.016-.038.031-.056.049-.46.395-1.223.826-2.392 1.222-2.167.733-5.064 1.137-8.156 1.137-6.788 0-11.12-1.931-11.12-3.26 0-.517.776-1.384 2.964-2.123zm19.41 18.697c-.161.112-.36.147-.588.104-.314-.059-.95-.322-1.681-1.419a.757.757 0 0 0-.103-.123l.834-3.841a.757.757 0 1 0-1.48-.322l-1.592 7.33c-.949.851-3.417 2.058-6.644 2.074-3.227-.016-5.696-1.223-6.645-2.074l-3.34-15.282c2.11 1.037 5.456 1.753 9.985 1.753 2.474 0 4.594-.214 6.354-.578 4.493 6.625 6.048 11.574 4.9 12.378z" fill="#d3d3d3"/><path d="M11.299 17.871a.76.76 0 0 0 .578-.183l2.425-2.121a.758.758 0 0 0-.998-1.14l-1.81 1.583-.419-.558a.758.758 0 1 0-1.211.908l.908 1.212a.758.758 0 0 0 .527.3zM11.602 22.114a.76.76 0 0 0 .578-.183l2.425-2.122a.758.758 0 0 0-.999-1.14l-1.808 1.583-.42-.558a.758.758 0 0 0-1.212.909l.91 1.212a.757.757 0 0 0 .526.299zM14.213 22.608l-1.81 1.583-.419-.558a.757.757 0 1 0-1.212.909l.909 1.212a.758.758 0 0 0 1.105.116l2.424-2.122a.757.757 0 1 0-.997-1.14z" fill="#61dafb"/><path d="M21.075 19.14c-2.226.974-4.206.553-4.243.553a.758.758 0 0 0 0 1.515c.094 0 2.31.433 4.85-.679a.758.758 0 0 0-.607-1.389zM21.377 15.277c-2.24.98-4.523.553-4.545.553a.758.758 0 0 0 0 1.515c.106 0 2.613.432 5.153-.68a.758.758 0 1 0-.608-1.388zM20.771 23.241c-2.218.97-3.906.553-3.94.553a.758.758 0 0 0 .002 1.515c.08 0 2.005.432 4.546-.68a.758.758 0 0 0-.608-1.388z" fill="#d3d3d3"/></svg><view id="check-box" viewBox="60 60 60 60"/><svg height="60" viewBox="-5.38 -22.38 63.27 63.27" width="60" x="60" y="60" xmlns="http://www.w3.org/2000/svg"><path d="M45.636-6.987v-.548c0-.987-.8-1.787-1.787-1.787H9.922c-.987 0-1.786.8-1.786 1.787V26.39c0 .987.8 1.787 1.786 1.787H43.85c.987 0 1.787-.8 1.787-1.787V-.966v-6.021zm-3.574 31.591H11.709V-5.748h30.353v30.352z" fill="#d3d3d3"/></svg><view id="check-mark" viewBox="120 0 60 60"/><svg height="60" viewBox="-5.38 -22.38 63.27 63.27" width="60" x="120" xmlns="http://www.w3.org/2000/svg"><path d="M43.733-8.573c-.826-.021-1.856.56-1.856.56L20.141 21.46l-9.55-9.55a1.77 1.77 0 1 0-2.502 2.502l11.005 11.004a1.77 1.77 0 0 0 2.675-.2L44.725-5.913a1.769 1.769 0 0 0-.374-2.474c-.172-.127-.387-.18-.618-.187z" fill="#61dafb"/></svg><view id="close" viewBox="120 60 60 60"/><svg width="60" height="60" viewBox="-5.38 -5.38 80.77 80.77" x="120" y="60" xmlns="http://www.w3.org/2000/svg"><path d="M35.822 9.62c-13.785 0-25 11.215-25 25s11.215 25 25 25a24.88 24.88 0 0 0 17.324-6.976 1.017 1.017 0 1 0-1.41-1.467 22.854 22.854 0 0 1-15.914 6.408c-12.663 0-22.965-10.302-22.965-22.965s10.302-22.965 22.965-22.965S58.787 21.957 58.787 34.62c0 2.856-.518 5.642-1.539 8.282a1.018 1.018 0 0 0 1.899.734 24.895 24.895 0 0 0 1.675-9.016c0-13.785-11.215-25-25-25z" fill="#d3d3d3"/><path d="M39.247 36.776a1.018 1.018 0 0 0-1.424 1.454l8.01 7.84a1.014 1.014 0 0 0 1.44-.015 1.018 1.018 0 0 0-.016-1.439zM32.05 32.287a1.014 1.014 0 0 0 1.439 0 1.017 1.017 0 0 0 0-1.439l-7.671-7.671a1.017 1.017 0 0 0-1.44 1.439zM47.265 23.177a1.017 1.017 0 0 0-1.439 0L24.379 44.624a1.017 1.017 0 1 0 1.439 1.44l21.447-21.448a1.018 1.018 0 0 0 0-1.44z" fill="#61dafb"/></svg><view id="close-white" viewBox="60 180 34 34"/><svg width="34" height="34" viewBox="-4 -4 34 34" x="60" y="180" xmlns="http://www.w3.org/2000/svg"><path d="M15.956 13.266c-.2-.2-.2-.5 0-.7l7.5-7.5c.2-.2.3-.5.3-.7 0-.2-.1-.5-.3-.7l-1.4-1.4c-.2-.2-.5-.3-.7-.3-.3 0-.5.1-.7.3l-7.5 7.5c-.2.2-.5.2-.7 0l-7.5-7.5c-.2-.2-.5-.3-.7-.3-.2 0-.5.1-.7.3l-1.4 1.4c-.2.2-.3.5-.3.7 0 .2.1.5.3.7l7.5 7.5c.2.2.2.5 0 .7l-7.5 7.5c-.2.2-.3.5-.3.7 0 .2.1.5.3.7l1.4 1.4c.2.2.5.3.7.3.2 0 .5-.1.7-.3l7.5-7.5c.2-.2.5-.2.7 0l7.5 7.5c.2.2.5.3.7.3.2 0 .5-.1.7-.3l1.4-1.4c.2-.2.3-.5.3-.7 0-.2-.1-.5-.3-.7z" fill="#fff"/></svg><view id="community" viewBox="60 120 60 60"/><svg version="1.0" width="60" height="60" viewBox="-24.62 -24.62 289.23 289.23" x="60" y="120" xmlns="http://www.w3.org/2000/svg"><path d="M155.32 17.752c-7.378 0-13.802 2.678-19.137 7.945-8.33 8.263-10.42 20.34-5.312 30.783 1.543 3.178 3.383 5.63 6.175 8.24l2.179 2.021-1.226.635c-3.178 1.612-7.491 4.995-9.898 7.787-3.995 4.654-7.082 10.805-8.036 15.981-.181.976-.363 1.453-.499 1.317-.136-.136-.5-1.316-.84-2.678-1.612-6.243-4.654-11.601-9.285-16.21-2.452-2.429-4.403-3.95-7.354-5.697-1.09-.636-1.953-1.248-1.93-1.339.045-.09.75-.772 1.566-1.499 4.813-4.245 7.945-9.852 8.944-15.982 2.656-16.367-10.283-31.44-26.878-31.281-1.452.023-3.133.113-3.768.227-6.266 1.158-11.01 3.586-15.21 7.786-4.54 4.54-7.083 9.898-7.832 16.504-.93 8.082 2.724 17.207 9.149 22.723.908.772 1.633 1.499 1.633 1.612 0 .114-.566.523-1.247.909-2.52 1.384-5.199 3.337-7.197 5.221l-.93.908-2.134-.613c-7.968-2.247-15.778-1.43-23.11 2.428-7.674 4.041-13.576 11.465-15.778 19.82-1.316 5.016-1.316 11.054 0 16.071.931 3.564 3.11 8.014 5.403 11.01 1.362 1.794 4.79 5.177 6.47 6.38 1 .704 1.34 1.066 1.135 1.203-.16.09-1.248.703-2.383 1.361-4.132 2.338-8.468 5.971-11.419 9.581-3.7 4.518-6.674 10.556-8.036 16.231-.93 3.86-1.044 6.016-1.044 18.547 0 11.487.022 12.167.43 12.962.795 1.543 2.498 2.701 6.153 4.2 6.016 2.451 11.85 3.723 21.793 4.744 3.859.386 20.045.386 23.836 0 7.106-.726 13.325-1.838 17.366-3.11.999-.317 1.952-.567 2.111-.567.204 0 .273 2.224.273 10.42 0 11.44-.022 11.305 1.408 12.667 1.657 1.589 6.492 3.678 11.759 5.085 14.302 3.791 38.819 3.928 53.53.295 5.856-1.452 11.1-3.632 12.962-5.38 1.407-1.34 1.384-1.158 1.384-12.645 0-7.468.068-10.442.25-10.442.136 0 1.089.25 2.11.568 4.2 1.27 9.853 2.315 16.255 2.996 4.744.5 20.544.567 24.971.113 11.192-1.158 17.593-2.655 23.564-5.516 2.52-1.203 4.019-2.406 4.518-3.541.454-1.135.43-24.722-.046-27.877-.84-5.562-2.746-10.807-5.607-15.415-3.45-5.562-8.944-10.828-14.483-13.87-3.087-1.702-2.952-1.475-1.43-2.497 1.974-1.362 5.902-5.403 7.468-7.719 5.221-7.696 6.857-16.98 4.518-25.879-1.589-6.129-5.494-12.19-10.42-16.23-8.172-6.652-18.82-8.9-28.354-5.994a74.876 74.876 0 0 1-2.361.704c-.386.09-.93-.273-2.496-1.635a38.725 38.725 0 0 0-6.47-4.63l-1.294-.75 2.678-2.633c3.632-3.61 5.789-7.016 7.15-11.329 3.02-9.648.523-19.659-6.787-26.991-5.221-5.244-11.805-8.036-18.91-8.036zm-72.204 9.152c1.828.018 4.39.27 5.599.61 5.13 1.43 9.375 5.016 11.555 9.76 1.157 2.52 1.521 4.291 1.521 7.492.023 3.587-.431 5.539-1.93 8.4-3.405 6.583-10.624 10.42-17.934 9.534-4.29-.522-7.559-2.11-10.533-5.107-2.815-2.838-4.267-5.404-5.04-9.036-.476-2.338-.295-6.764.386-8.898 2.202-6.901 7.787-11.646 14.87-12.69.368-.052.896-.071 1.506-.065zm71.008.01c1.947-.03 4.488.208 5.918.6 5.993 1.68 10.579 6.265 12.372 12.372.818 2.701.863 6.765.136 9.512-1.657 6.22-6.538 11.19-12.622 12.825-2.838.749-6.969.704-9.852-.113-6.81-1.952-11.918-8.036-12.735-15.21-1.09-9.625 5.517-18.32 15.096-19.864a12.169 12.169 0 0 1 1.687-.122zM83.658 71.872c1.97-.038 3.922.123 5.738.499 6.924 1.43 13.212 5.585 16.958 11.215 2.883 4.335 4.654 10.033 4.654 14.959 0 1.702-.068 1.816-1.476 2.27-1.907.613-5.993 2.747-7.9 4.11-3.745 2.7-7.196 6.583-9.352 10.555-1.362 2.497-2.044 4.2-2.884 7.378-.59 2.247-.703 3.133-.794 6.356-.136 4.154.159 6.515 1.18 10.102.75 2.565 2.475 6.198 4.11 8.696 1.543 2.315 4.72 5.674 7.036 7.445.93.704 1.68 1.362 1.68 1.43 0 .09-.477.386-1.067.681-3.269 1.567-7.968 5.153-10.92 8.331-.998 1.045-1.906 1.907-2.042 1.907-.136 0-.227-.795-.25-1.998-.09-8.4-2.86-16.594-7.9-23.381-1.748-2.384-6.356-6.925-8.695-8.605-1.067-.749-2.838-1.883-3.973-2.519-1.112-.635-2.179-1.249-2.338-1.34-.204-.136.137-.498 1.136-1.202 1.861-1.34 5.243-4.7 6.696-6.674 7.06-9.58 8.15-22.02 2.839-32.713-1.476-3.019-3.247-5.357-6.244-8.354-2.383-2.36-2.86-2.974-2.656-3.223.318-.386 2.929-2.112 4.404-2.952 3.293-1.841 7.724-2.89 12.06-2.973zm71.117.01c1.954.014 4.169.182 5.63.466 4.155.772 8.036 2.588 11.396 5.267l.954.794-2.27 2.157c-2.816 2.656-4.79 5.29-6.425 8.445-1.52 2.929-2.224 4.88-2.928 7.99-.681 3.133-.75 9.24-.091 12.236 1.748 8.195 5.88 14.711 12.35 19.5.976.727 1.339 1.09 1.134 1.227-.158.09-1.203.704-2.338 1.34-8.694 4.925-15.368 12.984-18.5 22.36-1.227 3.745-1.84 7.037-2.022 11.055l-.136 3.427-2.043-2.133c-3.314-3.427-7.605-6.743-10.828-8.332-.727-.34-1.317-.703-1.317-.794 0-.068.75-.726 1.68-1.43 2.156-1.657 5.357-5.017 6.855-7.173 2.543-3.7 4.45-8.446 5.199-12.918.567-3.382.386-8.989-.431-12.19-1.476-5.97-4.154-10.693-8.445-14.983-3.473-3.474-7.083-5.743-11.668-7.378-2.793-.976-2.702-.749-2.27-4.585 1.407-12.894 10.692-22.452 23.495-24.2.766-.11 1.846-.157 3.019-.148zM47.27 80.936c1.897.023 4.646.283 5.94.607 2.225.567 5.29 1.906 7.083 3.086 1.77 1.18 4.676 3.95 5.88 5.653 2.973 4.154 4.404 9.057 4.132 14.256-.477 9.83-7.129 18.025-16.732 20.613-2.633.727-8.285.771-10.896.113-8.468-2.18-14.53-8.262-16.64-16.707-.568-2.316-.68-7.492-.181-9.535 1.135-4.812 2.883-8.105 6.016-11.305 3.745-3.86 7.9-5.88 13.87-6.72.357-.05.895-.069 1.528-.061zm144.261.03c.455-.002.923.008 1.406.031 1.294.068 3.019.25 3.858.431 4.268.908 7.742 2.792 10.988 5.993 3.269 3.201 5.153 6.675 6.311 11.601.454 1.907.385 6.992-.114 9.194-1.952 8.535-8.15 14.846-16.708 17.048-1.34.34-2.475.431-5.335.431-3.746-.022-4.903-.203-7.786-1.27-11.078-4.064-17.072-16.322-13.576-27.809 1.34-4.404 4.518-8.786 8.332-11.51.84-.59 1.589-1.067 1.702-1.067.091 0 1.112-.454 2.248-.999 2.9-1.43 5.487-2.061 8.674-2.075zm-72.154 26.99c2.161-.01 4.53.195 5.978.578 9.421 2.474 15.981 10.102 16.957 19.705.681 6.697-1.68 13.302-6.47 18.092-2.77 2.792-5.698 4.495-9.739 5.72-1.907.59-2.315.637-6.129.637-3.813 0-4.222-.046-6.129-.637-3.972-1.203-7.037-3.018-9.875-5.878-8.399-8.377-8.604-22.202-.454-31.1 3.156-3.429 7.741-5.972 12.44-6.857.903-.17 2.125-.254 3.421-.26zm71.758 26.988c2.42.018 5.74.32 7.68.763 5.313 1.18 9.99 3.564 13.962 7.083 5.267 4.676 8.649 10.534 10.192 17.594.477 2.202.5 2.837.523 12.871v10.556l-1.249.636c-2.883 1.43-10.215 3.064-16.912 3.79-8.445.886-18.092.885-26.673-.023-7.31-.749-15.529-2.678-17.55-4.13l-.658-.455.115-10.692c.09-9.852.135-10.85.567-12.78 2.27-9.875 8.195-17.503 17.048-21.952 3.27-1.658 6.81-2.68 10.92-3.179.522-.062 1.228-.088 2.035-.082zm-143.551.047c2.218.025 4.767.197 6.172.466 11.01 2.111 20.453 10.329 24.017 20.908 1.453 4.358 1.521 4.903 1.612 16.572l.113 10.715-.658.453c-2.02 1.43-10.26 3.36-17.548 4.11-14.006 1.475-29.217.545-39.796-2.384-2.451-.68-3.7-1.158-4.54-1.726l-.612-.43v-9.353c0-11.487.227-13.644 1.839-18.23 2.815-7.968 8.626-14.437 16.186-18.046 3.45-1.635 6.151-2.43 9.897-2.929.774-.102 1.987-.14 3.318-.126zm72.187 27.017c2.257.03 4.741.236 6.401.577 6.289 1.27 11.305 3.973 15.936 8.627 3.905 3.882 6.13 7.446 7.81 12.485 1.384 4.11 1.498 5.471 1.498 16.845v10.147l-.613.43c-2.339 1.658-10.42 3.429-20.045 4.405-3.746.363-17.82.363-21.566 0-8.104-.84-14.166-2.02-18.343-3.587-2.543-.953-2.315.183-2.315-11.44 0-11.306.113-12.577 1.476-16.732 3.881-11.69 14.074-20.113 26.173-21.612.962-.119 2.235-.164 3.588-.145z" fill="#61dafb"/></svg><view id="easy" viewBox="0 0 60 60"/><svg version="1.0" width="60" height="60" viewBox="-24.62 -24.62 289.23 289.23" xmlns="http://www.w3.org/2000/svg"><path d="M23.882 16.026c-2.675.632-2.954.875-4.247 1.86a5.386 5.386 0 0 0-1.889 2.723c-.69 2.268-1.053 3.51-.97 8.917l-.067 31.482-.029 8.297-.165 134.143.168 15.653c.013 1.184.599 2.337 1.253 3.323.66.995 1.69 1.84 2.599 2.466 1.112.656 1.724.88 4.705 1.136l171.053-.729H210.067s8.917-.167 11.627-1.196c1.44-.547 2.548-1.212 3.166-2.266.569-.971.827-2.067.972-4.724 0 0 .885-192.059.11-192.059-.276 0-.719-.553-.885-1.272-.719-2.212-2.986-4.702-5.254-5.698-1.217-.553-2.213-1.161-2.213-1.438 0-.221-95.918-.442-95.918-.442zm97.181 9.026c73.35 0 96.693.664 96.693.664l-.166 15.765v15.102H24.535l-.11-30.7zM83.648 33.39c-.995-.036-2.04.171-3.076.68-1.328.663-3.485 4.148-3.485 5.586 0 2.71 3.706 6.416 6.416 6.416 1.881 0 4.591-1.66 5.476-3.319 2.337-4.494-1.022-9.207-5.331-9.363zm-22.005.002c-1 0-2.047.348-3.198 1.064-1.826 1.106-3.485 3.65-3.485 5.366 0 1.714 2.157 4.591 4.148 5.532 1.715.83 2.213.83 3.983.22 5.753-2.101 6.195-8.463.83-11.56-.75-.412-1.5-.622-2.278-.622zm-22.462.027c-.871-.014-1.7.318-2.807.982-1.77 1.106-3.596 3.928-3.485 5.532.11 2.544 3.706 6.029 6.306 6.084 1.77.056 4.646-1.991 5.642-4.093 1.327-2.766.277-5.808-2.6-7.412-1.272-.72-2.185-1.08-3.056-1.093zM24.59 64.88H217.59v75.396l-.664 76.06-95.863.664-96.638-.014.166-77.097zm139.287 24.892c-1.715 0-2.821.941-11.119 9.239-8.131 8.02-9.293 9.403-9.293 10.952 0 2.434 1.77 4.148 4.259 4.148 1.825 0 2.655-.607 9.127-7.024l7.081-7.025 6.804 6.748c5.642 5.587 7.135 6.749 8.518 6.749 1.77 0 3.762-1.494 4.315-3.264.553-1.88-.996-3.928-9.514-12.391-7.413-7.302-8.464-8.132-10.178-8.132zM73 89.876c-2.537.035-5.123 2.995-11.125 8.913-8.298 8.243-9.127 9.238-9.127 11.008 0 3.651 3.595 5.532 6.582 3.374.774-.497 4.038-3.595 7.357-6.914 5.808-5.753 6.748-6.472 7.19-5.587.111.277 3.043 3.264 6.584 6.638 5.255 5.145 6.693 6.25 8.076 6.25 2.212 0 4.038-1.99 4.038-4.48 0-1.66-.83-2.71-8.74-10.566-5.809-5.78-8.297-8.67-10.835-8.636z" fill="#61dafb"/></svg><view id="logo" viewBox="60 23.41 60 19.8"/><svg version="1.0" width="60" height="19.8" viewBox="-53.33 -53.33 626.67 224.67" x="60" y="23.41" xmlns="http://www.w3.org/2000/svg"><path d="M96.8 9.6c-6.3 1.9-12.7 8.4-15.7 15.7-1.7 4.2-2.1 6.1-1.3 6.9 1.6 1.6 4.2-.8 4.2-3.7 0-3.3 5.9-11.6 10-14 2.8-1.6 5.1-2 11.5-1.9 18.1.3 27.5 8.5 27.5 23.9 0 4.9.3 6.5 1.4 6.5 1.8 0 3-6.5 2-11.6-1-5.8-3.8-10.6-8.4-14.8-4.5-4.1-6.8-5.2-15-7.2-6.9-1.7-10.3-1.6-16.2.2zM4.2 24.2c.3 6.8.5 7.3 2.8 7.8l2.5.6.1 29.5c.1 16.1.2 30 .2 30.6.2.9 2.7 1.3 9.1 1.3 8.1 0 9-.2 9.6-2 .8-2.4 1.8-2.5 5-.4 1.3.9 5.1 1.8 8.4 2.1 11.2 1 20.5-3.5 25.8-12.4 2.5-4.4 2.8-5.7 2.8-14.3 0-8.5-.3-9.9-2.7-13.5-3.4-5.3-6.5-8.1-11-10-4.7-1.9-15.8-2-20.4 0-2 .8-4 1.2-4.5.9-.5-.3-.9-5.7-.9-12C31 17 31 17 15.5 17H3.9l.3 7.2zm44.5 33c3.1 3.5 4.3 6.3 4.3 10.5 0 11.6-14.7 16.8-19.4 6.8-2.9-6.1-1.3-14.5 3.5-17.9 3.5-2.4 9.1-2.1 11.6.6zM192.4 23.2c-.4.6-.8 3.9-.8 7.2 0 5.7.2 6.1 2.5 6.5 1.3.1 2.7.8 3.1 1.5.4.6.8 12.7.8 26.8v25.7l2.7 2.1c2.3 1.8 3.8 2 10.2 1.8l7.6-.3.5-9.5c.6-12.1 2-12.4 7.5-1.8 6.3 11.9 6.3 11.9 16.9 11.6l9.1-.3.3-6.7c.3-6.4.2-6.7-2.4-8-1.5-.7-4.1-3.5-5.6-6.2l-2.9-4.9 2.3-4.5c1.3-2.5 3.8-5.4 5.6-6.5 3.2-1.9 3.3-2.1 3-8.1l-.3-6.1-9.6-.3c-11.1-.3-10.4-.8-16.4 10.7-2.3 4.4-4.7 7.7-5.7 7.9-1.7.3-1.8-1-1.8-16.8 0-9.6-.4-18-1-19-.6-1.1-2.7-2.4-4.8-3-5.2-1.4-19.9-1.3-20.8.2z"/><path d="M397.4 23.2c-1.2 1.9 1 2.4 11 2.6 10.2.3 10.6.2 10.6-1.8s-.4-2.1-10.6-1.8c-5.8.1-10.8.6-11 1zM352.7 23.7c-1 .9-.9 14.3.1 14.4.4.1 1.7.3 2.8.4 4.4.5 4.4.6 4.4 26.3 0 20.8.2 25.1 1.6 27 1.4 2.1 2.2 2.2 15.5 2.2H391V78h-9.9l-.3-25.6c-.4-31.4.7-29.4-16.2-29.4-6.2 0-11.6.3-11.9.7z" fill="#61dafb"/><path d="M316.3 28.8c-.7.4-1.3 3.6-1.5 7.2-.3 6-.5 6.5-2.7 6.6-3.2.2-3.9 1.7-3.4 7.7.6 7.1.9 7.7 3.8 7.7h2.5v11.7c0 13.2 1 15.9 7.2 20.5 4.8 3.6 9.1 4.8 17.4 4.8h7.4V78.3l-4-.6c-6.4-.8-7-1.8-7-11.3v-8.3l4.8-.3 4.7-.3v-15l-4.7-.3-4.8-.3v-4c0-5.3-1.3-7.4-5.1-8.8-3.6-1.3-12.8-1.5-14.6-.3z"/><path d="M398.1 30.6c0 1.1.3 1.4.6.6.3-.7.2-1.6-.1-1.9-.3-.4-.6.2-.5 1.3zM403.7 29.6c-1.6 1.6.9 2.4 7.4 2.4 5.2 0 7-.3 6.7-1.3-.5-1.3-12.9-2.3-14.1-1.1zM486.8 35.7l-.3 6.8-3.2.3-3.3.3V50c0 6.7 0 6.9 2.8 7.2l2.7.3.5 12c.4 10.3.8 12.5 2.9 15.8 3.4 5.5 10.5 8.8 20.3 9.4l7.8.6V78h-3.3c-5.8 0-6.8-1.5-6.9-10.6-.1-4.4.2-8.5.6-9.2.4-.7 2.7-1.2 5.2-1.2h4.4V43h-9.9l-.3-6.8-.3-6.7-9.7-.3-9.7-.3-.3 6.8zM77.2 36.7c-1.7 3.2-2.1 11.3-.6 11.3 3 0 4.2 2.7 3.2 7.2-3.8 17.6-4.3 22.3-2.4 26.2 1.9 4.1 7.4 8.6 10.3 8.6 1.1 0 5.7 1.1 10.4 2.5 9.9 3 13.5 2.7 18.9-1.6 4.2-3.4 4.6-4.5 9.2-24.4 1.2-5.4 1.7-6 4.1-6.3 3-.4 4-2 5.1-8.8.7-4.1.7-4.2-2.6-4.7-1.8-.3-6.6-1.3-10.6-2.2-10.2-2.3-11.5-1.9-12.4 3-.3 2.2-1.1 6.7-1.7 10-.6 3.3-1.4 7.6-1.7 9.5-.9 5.8-2.4 8-5.5 8-3.8 0-4.9-2.4-3.8-8 2.3-11.1 3-14.8 3.5-18.5.4-2.2 1.1-4.6 1.7-5.3 2-2.6-2.6-4.2-16.8-5.9-2.7-.3-5.5-1-6.2-1.5-.8-.6-1.5-.3-2.1.9zM398 37c0 .5.5 1 1.1 1 .5 0 .7-.5.4-1-.3-.6-.8-1-1.1-1-.2 0-.4.4-.4 1zM403 37c0 .6 3.2 1 7.5 1s7.5-.4 7.5-1-3.2-1-7.5-1-7.5.4-7.5 1z" fill="#61dafb"/><path d="M158.3 42c-5.8 1.2-9.7 3.4-14.3 8-5.4 5.4-7.3 10.1-7.3 18.5-.1 11.6 5.3 19.9 16.2 24.9 6.7 3.1 22.7 2.9 29.3-.3 2.5-1.2 5.4-3.1 6.3-4.1 1.5-1.7 1.4-2.2-1.6-8.2-1.7-3.4-3.3-6.5-3.5-6.7-.1-.2-2.3.6-4.7 1.8-5.2 2.5-14.2 2.8-17.4.6-2.5-1.8-4.4-7.4-3.6-10.7 1-4.1 4.3-6.8 8.4-6.8 3.3 0 4.1.5 5.4 3 1.6 3.1 1.6 3.1 9.3 2.8l7.7-.3.3-6.8c.3-6.7.2-6.9-3.3-10.2-2-1.9-5.2-3.9-7.3-4.5-5.5-1.5-15.2-2-19.9-1zM275.1 42c-23.4 4.8-27.4 38.7-6 50.5 5 2.8 6.1 3 15.4 2.9 10.1-.1 15.5-1.6 20.9-5.7 1.9-1.4 1.9-1.6-1.5-8.1C302 78 300 75 299.4 75c-.6 0-2.8.7-4.9 1.6-5.2 2.1-13.1 2.1-15.6-.2-4.3-3.9-2.8-4.4 13-4.4 16.7 0 16.2.3 15.4-7.6-.9-9.9-6.7-18.3-14.4-21.2-4-1.6-13-2.1-17.8-1.2zm10.4 17.1c.9 2.9-.6 4.1-4.6 3.7-4.2-.4-5.2-3.8-1.8-6.2 2.6-1.8 5.4-.7 6.4 2.5z"/><path d="M445.1 42.9c-10.5 2.7-16 14.3-10.4 21.9 1.7 2.4 8.4 6.4 13.8 8.2 5.1 1.8 9.5 4.1 9.5 4.9 0 1.3-3.3 3.1-5.5 3.1-.9 0-2.7-1.1-4.1-2.5-2.2-2.2-3.3-2.5-9.9-2.5H431v5.1c0 4.6.4 5.5 3.4 8.4 4.3 4 10.9 5.9 20.8 5.8 6.7 0 8.8-.5 13.5-2.9 6.3-3.3 9.3-7.6 9.3-13.4 0-7.3-4.3-11.4-15.8-14.9-8.2-2.5-9.7-3.4-8.9-5.5.8-2 5.3-2.1 6.1-.1.5 1.3 2.1 1.5 8.8 1.3l8.3-.3-.3-4.5c-.7-9.1-5.2-12.2-18.7-12.6-4.9-.2-10.5.1-12.4.5zM396 49.9c0 6.9 0 7 2.8 7.3l2.7.3.5 16.6c.4 12 .9 17.1 1.9 18.3 1 1.2 3.2 1.6 9.7 1.6h8.4V70.5c0-29.2.9-27.5-15-27.5h-11v6.9z" fill="#61dafb"/></svg><view id="logo-mob" viewBox="180 0 60 40.5"/><svg version="1.0" width="60" height="40.5" viewBox="-12.31 -12.31 144.62 124.62" x="180" xmlns="http://www.w3.org/2000/svg"><path d="M5.461 19.877c.3 6.8.5 7.3 2.8 7.8l2.5.6.1 29.5c.1 16.1.2 30 .2 30.6.2.9 2.7 1.3 9.1 1.3 8.1 0 9-.2 9.6-2 .8-2.4 1.8-2.5 5-.4 1.3.9 5.1 1.8 8.4 2.1 11.2 1 20.5-3.5 25.8-12.4 2.5-4.4 2.8-5.7 2.8-14.3 0-8.5-.3-9.9-2.7-13.5-3.4-5.3-6.5-8.1-11-10-4.7-1.9-15.8-2-20.4 0-2 .8-4 1.2-4.5.9-.5-.3-.9-5.7-.9-12 0-15.4 0-15.4-15.5-15.4h-11.6zm44.5 33c3.1 3.5 4.3 6.3 4.3 10.5 0 11.6-14.7 16.8-19.4 6.8-2.9-6.1-1.3-14.5 3.5-17.9 3.5-2.4 9.1-2.1 11.6.6z"/><path d="M76.593 19.377c-1 .9-.9 14.3.1 14.4.4.1 1.7.3 2.8.4 4.4.5 4.4.6 4.4 26.3 0 20.8.2 25.1 1.6 27 1.4 2.1 2.2 2.2 15.5 2.2h13.9v-16h-9.9l-.3-25.6c-.4-31.4.7-29.4-16.2-29.4-6.2 0-11.6.3-11.9.7z" fill="#61dafb"/></svg><view id="menu-icon" viewBox="180 123.83 36 38"/><svg width="36" height="38" viewBox="-4 -4 36 38" x="180" y="123.83" xmlns="http://www.w3.org/2000/svg"><path d="M3.136 4.95c-.6 0-1 .4-1 1v2c0 .6.4 1 1 1h22c.6 0 1-.4 1-1v-2c0-.6-.4-1-1-1zm0 8c-.6 0-1 .4-1 1v2c0 .6.4 1 1 1h22c.6 0 1-.4 1-1v-2c0-.6-.4-1-1-1zm0 8c-.6 0-1 .4-1 1v2c0 .6.4 1 1 1h22c.6 0 1-.4 1-1v-2c0-.6-.4-1-1-1z" fill="#fff"/></svg><view id="playstore" viewBox="180 100.5 60 23.33"/><svg width="60" height="23.33" viewBox="-10.44 -10.44 156.6 60.9" x="180" y="100.5" xmlns="http://www.w3.org/2000/svg"><defs><linearGradient x1="31.8" y1="183.29" x2="15.017" y2="166.508" gradientUnits="userSpaceOnUse" gradientTransform="matrix(.8 0 0 -.8 0 161.6)" spreadMethod="pad" id="mi"><stop offset="0" stop-color="#00a0ff"/><stop offset=".007" stop-color="#00a1ff"/><stop offset=".26" stop-color="#00beff"/><stop offset=".512" stop-color="#00d2ff"/><stop offset=".76" stop-color="#00dfff"/><stop offset="1" stop-color="#00e3ff"/></linearGradient><linearGradient x1="43.834" y1="171.999" x2="19.638" y2="171.999" gradientUnits="userSpaceOnUse" gradientTransform="matrix(.8 0 0 -.8 0 161.6)" spreadMethod="pad" id="mj"><stop offset="0" stop-color="#ffe000"/><stop offset=".409" stop-color="#ffbd00"/><stop offset=".775" stop-color="orange"/><stop offset="1" stop-color="#ff9c00"/></linearGradient><linearGradient x1="34.827" y1="169.704" x2="12.069" y2="146.946" gradientUnits="userSpaceOnUse" gradientTransform="matrix(.8 0 0 -.8 0 161.6)" spreadMethod="pad" id="mk"><stop offset="0" stop-color="#ff3a44"/><stop offset="1" stop-color="#c31162"/></linearGradient><linearGradient x1="17.297" y1="191.824" x2="27.46" y2="181.661" gradientUnits="userSpaceOnUse" gradientTransform="matrix(.8 0 0 -.8 0 161.6)" spreadMethod="pad" id="ml"><stop offset="0" stop-color="#32a071"/><stop offset=".069" stop-color="#2da771"/><stop offset=".476" stop-color="#15cf74"/><stop offset=".801" stop-color="#06e775"/><stop offset="1" stop-color="#00f076"/></linearGradient><clipPath clipPathUnits="userSpaceOnUse" id="ma"><path d="M0 0h124v48H0V0z"/></clipPath><mask maskUnits="userSpaceOnUse" x="0" y="0" width="1" height="1" id="mm"><g clip-path="url(#ma)"><path d="M0 0h124v48H0V0z" fill-opacity=".2"/></g></mask><clipPath clipPathUnits="userSpaceOnUse" id="mn"><path d="M0 0h124v48H0V0z"/></clipPath><clipPath clipPathUnits="userSpaceOnUse" id="mb"><path d="M0 0h124v48H0V0z"/></clipPath><pattern patternTransform="matrix(1 0 0 -1 0 48)" patternUnits="userSpaceOnUse" x="0" y="0" width="124" height="48" id="mo"><g clip-path="url(#mb)"><path d="M29.625 20.695l-11.613-6.597c-.649-.371-1.231-.344-1.606-.008l-.058-.063.058-.058c.375-.336.957-.36 1.606.011l11.687 6.641-.074.074z"/></g></pattern><clipPath clipPathUnits="userSpaceOnUse" id="mc"><path d="M0 0h124v48H0V0z"/></clipPath><mask maskUnits="userSpaceOnUse" x="0" y="0" width="1" height="1" id="mp"><g clip-path="url(#mc)"><path d="M0 0h124v48H0V0z" fill-opacity=".12"/></g></mask><clipPath clipPathUnits="userSpaceOnUse" id="mq"><path d="M0 0h124v48H0V0z"/></clipPath><clipPath clipPathUnits="userSpaceOnUse" id="md"><path d="M0 0h124v48H0V0z"/></clipPath><pattern patternTransform="matrix(1 0 0 -1 0 48)" patternUnits="userSpaceOnUse" x="0" y="0" width="124" height="48" id="mr"><g clip-path="url(#md)"><path d="M16.348 14.145c-.235.246-.371.628-.371 1.125v-.118c0-.496.136-.879.371-1.125l.058.063-.058.055z"/></g></pattern><clipPath clipPathUnits="userSpaceOnUse" id="me"><path d="M0 0h124v48H0V0z"/></clipPath><mask maskUnits="userSpaceOnUse" x="0" y="0" width="1" height="1" id="ms"><g clip-path="url(#me)"><path d="M0 0h124v48H0V0z" fill-opacity=".12"/></g></mask><clipPath clipPathUnits="userSpaceOnUse" id="mt"><path d="M0 0h124v48H0V0z"/></clipPath><clipPath clipPathUnits="userSpaceOnUse" id="mf"><path d="M0 0h124v48H0V0z"/></clipPath><pattern patternTransform="matrix(1 0 0 -1 0 48)" patternUnits="userSpaceOnUse" x="0" y="0" width="124" height="48" id="mu"><g clip-path="url(#mf)"><path d="M33.613 22.961l-3.988-2.266.074-.074 3.914 2.223c.559.316.836.734.836 1.156-.047-.379-.332-.75-.836-1.039z"/></g></pattern><clipPath clipPathUnits="userSpaceOnUse" id="mg"><path d="M0 0h124v48H0V0z"/></clipPath><mask maskUnits="userSpaceOnUse" x="0" y="0" width="1" height="1" id="mv"><g clip-path="url(#mg)"><path d="M0 0h124v48H0V0z" fill-opacity=".25"/></g></mask><clipPath clipPathUnits="userSpaceOnUse" id="mw"><path d="M0 0h124v48H0V0z"/></clipPath><clipPath clipPathUnits="userSpaceOnUse" id="mh"><path d="M0 0h124v48H0V0z"/></clipPath><pattern patternTransform="matrix(1 0 0 -1 0 48)" patternUnits="userSpaceOnUse" x="0" y="0" width="124" height="48" id="mx"><g clip-path="url(#mh)"><path d="M18.012 33.902l15.601-8.863c.508-.289.789-.66.836-1.039 0 .418-.277.836-.836 1.156L18.012 34.02c-1.117.632-2.035.105-2.035-1.176v-.114c0 1.278.918 1.805 2.035 1.172z" fill="#fff"/></g></pattern></defs><path d="M130.54 39.943H5.24c-2.755 0-5.012-2.23-5.012-4.954V5.267C.228 2.544 2.485.314 5.24.314h125.3c2.755 0 5.011 2.23 5.011 4.953V34.99c0 2.724-2.256 4.954-5.012 4.954z"/><path d="M130.54 1.108c2.32 0 4.208 1.866 4.208 4.16v29.721c0 2.294-1.888 4.16-4.209 4.16H5.24c-2.32 0-4.208-1.866-4.208-4.16V5.267c0-2.293 1.888-4.16 4.208-4.16h125.3m0-.793H5.24C2.485.314.228 2.544.228 5.267V34.99c0 2.724 2.257 4.954 5.012 4.954h125.3c2.755 0 5.011-2.23 5.011-4.954V5.267c0-2.723-2.256-4.953-5.012-4.953z" fill="#a6a6a6"/><path d="M45.934 16.195c0 .668-.2 1.203-.594 1.602-.453.473-1.043.711-1.766.711a2.426 2.426 0 0 1-1.765-.719c-.485-.484-.727-1.078-.727-1.789 0-.711.242-1.305.727-1.785a2.414 2.414 0 0 1 1.765-.723c.344 0 .672.071.985.203.312.133.566.313.75.535l-.418.422c-.321-.379-.758-.566-1.317-.566-.504 0-.941.176-1.312.531-.367.356-.551.817-.551 1.383 0 .566.184 1.031.551 1.387a1.85 1.85 0 0 0 1.312.531c.535 0 .985-.18 1.34-.535.234-.235.367-.559.402-.973h-1.742v-.578h2.324c.028.125.036.246.036.363zM49.621 14.191h-2.183v1.52h1.968v.578h-1.968v1.52h2.183v.589H46.82v-4.796h2.801v.589zM52.223 18.398h-.618v-4.207h-1.339v-.589h3.297v.589h-1.34v4.207zM55.949 18.398v-4.796h.617v4.796h-.617zM59.301 18.398h-.613v-4.207h-1.344v-.589h3.301v.589h-1.344v4.207zM66.887 17.781c-.473.485-1.059.727-1.758.727-.703 0-1.289-.242-1.762-.727-.472-.484-.707-1.078-.707-1.781 0-.703.235-1.297.707-1.781.473-.485 1.059-.727 1.762-.727.695 0 1.281.242 1.754.731.476.488.711 1.078.711 1.777 0 .703-.235 1.297-.707 1.781zm-3.063-.402c.356.359.789.539 1.305.539.512 0 .949-.18 1.301-.539.355-.359.535-.82.535-1.379s-.18-1.02-.535-1.379a1.756 1.756 0 0 0-1.301-.539c-.516 0-.949.18-1.305.539-.355.359-.535.82-.535 1.379s.18 1.02.535 1.379zM68.461 18.398v-4.796h.75l2.332 3.73h.027l-.027-.922v-2.808h.617v4.796h-.644l-2.442-3.914h-.027l.027.926v2.988h-.613z" fill="#fff" stroke="#fff" stroke-width=".16" stroke-miterlimit="10" transform="matrix(1.25299 0 0 1.23841 -9.796 -9.594)"/><path d="M68.526 21.865c-2.354 0-4.277 1.77-4.277 4.214 0 2.424 1.923 4.213 4.277 4.213 2.36 0 4.283-1.79 4.283-4.213 0-2.443-1.923-4.214-4.283-4.214zm0 6.768c-1.291 0-2.403-1.054-2.403-2.554 0-1.52 1.112-2.555 2.403-2.555 1.292 0 2.409 1.035 2.409 2.555 0 1.5-1.117 2.554-2.409 2.554zm-9.333-6.768c-2.36 0-4.278 1.77-4.278 4.214 0 2.424 1.918 4.213 4.278 4.213 2.358 0 4.278-1.79 4.278-4.213 0-2.443-1.92-4.214-4.278-4.214zm0 6.768c-1.293 0-2.408-1.054-2.408-2.554 0-1.52 1.115-2.555 2.408-2.555 1.292 0 2.403 1.035 2.403 2.555 0 1.5-1.111 2.554-2.403 2.554zm-11.107-5.477v1.791h4.327c-.127 1-.465 1.736-.984 2.249-.631.62-1.615 1.307-3.343 1.307a4.722 4.722 0 0 1-4.747-4.756 4.722 4.722 0 0 1 4.747-4.756c1.44 0 2.488.557 3.26 1.277l1.277-1.262c-1.08-1.02-2.52-1.804-4.537-1.804-3.65 0-6.72 2.936-6.72 6.545s3.07 6.545 6.72 6.545c1.974 0 3.456-.639 4.621-1.838 1.194-1.18 1.567-2.84 1.567-4.18 0-.416-.035-.798-.098-1.118h-6.09zm45.416 1.389c-.352-.943-1.438-2.68-3.651-2.68-2.193 0-4.018 1.707-4.018 4.214 0 2.36 1.806 4.213 4.228 4.213a4.238 4.238 0 0 0 3.554-1.868l-1.453-.957c-.485.701-1.146 1.166-2.1 1.166-.949 0-1.63-.43-2.065-1.277l5.702-2.332-.197-.48zm-5.814 1.403c-.049-1.625 1.277-2.457 2.227-2.457.744 0 1.376.367 1.586.894l-3.813 1.563zm-4.634 4.088h1.874V17.652h-1.874v12.384zm-3.07-7.233h-.063c-.421-.493-1.224-.938-2.242-.938-2.135 0-4.087 1.852-4.087 4.228 0 2.361 1.952 4.199 4.087 4.199 1.018 0 1.821-.45 2.242-.957h.063v.604c0 1.611-.871 2.477-2.276 2.477-1.145 0-1.855-.817-2.149-1.505l-1.63.673c.47 1.117 1.714 2.491 3.78 2.491 2.197 0 4.051-1.278 4.051-4.387V22.12h-1.776v.682zm-2.144 5.83c-1.292 0-2.373-1.07-2.373-2.54 0-1.485 1.081-2.569 2.373-2.569 1.273 0 2.277 1.084 2.277 2.569 0 1.47-1.004 2.54-2.277 2.54zm24.438-10.981h-4.483v12.384h1.87v-4.693h2.613c2.076 0 4.112-1.485 4.112-3.846 0-2.36-2.04-3.845-4.112-3.845zm.049 5.969h-2.663v-4.247h2.663a2.161 2.161 0 0 1 2.193 2.123c0 .958-.797 2.124-2.193 2.124zm11.556-1.78c-1.35 0-2.755.59-3.333 1.896l1.66.687c.356-.687 1.013-.91 1.707-.91.97 0 1.954.576 1.969 1.593v.13c-.339-.193-1.063-.48-1.954-.48-1.787 0-3.607.973-3.607 2.787 0 1.66 1.463 2.728 3.109 2.728 1.258 0 1.952-.56 2.388-1.213h.064v.957h1.805v-4.75c0-2.196-1.659-3.425-3.808-3.425zm-.225 6.787c-.612 0-1.464-.3-1.464-1.05 0-.958 1.063-1.326 1.983-1.326.823 0 1.209.18 1.709.416-.147 1.147-1.146 1.96-2.228 1.96zm10.611-6.516l-2.148 5.369h-.064l-2.222-5.369h-2.016l3.338 7.503-1.905 4.174h1.954l5.143-11.677h-2.08zm-16.851 7.924h1.874V17.652h-1.874v12.384z" fill="#fff"/><path d="M16.348 33.969c-.235-.246-.371-.629-.371-1.125V15.152c0-.496.136-.879.371-1.125l.058-.054 9.914 9.91v.234l-9.914 9.91-.058-.058z" fill="url(#mi)" transform="matrix(1.25299 0 0 -1.23841 -9.796 49.85)"/><path d="M29.621 20.578l-3.301 3.305v.234l3.305 3.305.074-.043 3.914-2.227c1.117-.632 1.117-1.672 0-2.308l-3.914-2.223-.078-.043z" fill="url(#mj)" transform="matrix(1.25299 0 0 -1.23841 -9.796 49.85)"/><path d="M29.699 20.621L26.32 24l-9.972-9.973c.371-.39.976-.437 1.664-.047l11.687 6.641" fill="url(#mk)" transform="matrix(1.25299 0 0 -1.23841 -9.796 49.85)"/><path d="M29.699 27.379L18.012 34.02c-.688.386-1.293.339-1.664-.051L26.32 24l3.379 3.379z" fill="url(#ml)" transform="matrix(1.25299 0 0 -1.23841 -9.796 49.85)"/><g mask="url(#mm)" transform="matrix(1.25299 0 0 -1.23841 -9.796 49.85)"><g clip-path="url(#mn)"><path d="M0 0h124v48H0V0z" fill="url(#mo)"/></g></g><g mask="url(#mp)" transform="matrix(1.25299 0 0 -1.23841 -9.796 49.85)"><g clip-path="url(#mq)"><path d="M0 0h124v48H0V0z" fill="url(#mr)"/></g></g><g><g mask="url(#ms)" transform="matrix(1.25299 0 0 -1.23841 -9.796 49.85)"><g clip-path="url(#mt)"><path d="M0 0h124v48H0V0z" fill="url(#mu)"/></g></g></g><g><g mask="url(#mv)" transform="matrix(1.25299 0 0 -1.23841 -9.796 49.85)"><g clip-path="url(#mw)"><path d="M0 0h124v48H0V0z" fill="url(#mx)"/></g></g></g></svg><view id="privacy" viewBox="180 40.5 60 60"/><svg version="1.0" width="60" height="60" viewBox="-24.62 -24.62 289.23 289.23" x="180" y="40.5" xmlns="http://www.w3.org/2000/svg"><path d="M123.468 12.313c-4.278 0-7.613.29-7.613.652 0 .435-1.523.87-3.408 1.16-17.907 2.248-35.379 13.05-47.559 29.363-7.61 12.143-7.85 13.15-11.238 28.71.362.217.435.725.145 1.087-.217.435-.652 4.205-.87 8.482l-.507 7.758-3.48.218c-3.376.2-3.756.124-5.548.735-1.378.47-2.257 1.357-2.875 2.351-.828 1.333-.785 2.952-.785 2.952.106 28.86.218 122.36.218 122.36.507 4.06.742 6.661 3.395 9.246 1.813 1.509 2.005 1.61 5.138 2.39l13.435.036H192.51c6.027 0 7.915-.458 9.438-.99 1.585-.553 2.514-1.269 4.314-3.07 1.016-1.137 1.388-1.699 1.667-4.35v-61.915c0-33.858-.29-61.625-.58-61.77-.362-.145-1.087-1.16-1.667-2.32-1.377-2.972-4.422-5.002-8.047-5.437l-3.118-.436-.507-7.974c-.58-9.86-1.378-14.429-3.77-21.534-4.93-14.645-16.168-28.636-29.073-36.321-3.77-2.248-12.542-6.308-13.557-6.308-.58 0-1.305-.29-1.74-.58-.798-.725-6.452-2.03-11.31-2.682-1.957-.218-3.48-.726-3.48-1.161 0-.363-3.335-.652-7.612-.652zm-.245 11.7c4.613-.009 9.235.227 11.047.698 1.595.435 4.277 1.087 5.872 1.522 18.923 4.93 35.815 21.75 40.818 40.817 1.957 7.468 2.32 10.513 2.32 21.316v11.599l6.38.218 6.308.217.217 59.233.145 59.305H50.605l.146-59.305.216-59.233 6.38-.217 6.308-.218V88.8c0-11.745.507-15.66 3.045-23.925 2.9-9.28 7.903-17.11 15.66-24.433 8.99-8.482 14.646-11.454 29.87-15.659 1.777-.507 6.38-.76 10.993-.77zm.588 26.834a28.544 28.544 0 0 0-8.101.978c-9.643 2.683-17.473 9.062-21.75 17.69-2.32 4.785-2.32 4.858-2.61 17.618l-.29 12.905H156.455v-8.483c0-10.585-1.015-16.747-3.77-22.547-5.066-10.78-17.024-17.923-28.874-18.161zm-.533 10.893c2.456-.036 4.902.2 6.425.743 6.887 2.32 12.905 8.41 14.935 15.37 1.16 3.77 1.232 10.005.072 11.165-1.232 1.232-41.252 1.232-42.485 0-2.247-2.248-.145-12.833 3.553-17.98 2.392-3.263 7.322-7.105 11.02-8.41 1.558-.544 4.024-.852 6.48-.888zm-1.745 80.907a10.73 10.73 0 0 0-1.835.238c-5.8 1.16-8.628 5.293-8.265 12.036.072.87 1.233 3.117 2.683 5.002l2.609 3.407-.87 4.423c-2.537 13.195-3.408 17.907-3.988 21.605l-.434 2.755h20.589l-.434-3.117c-.218-1.668-.725-4.93-1.16-7.25-3.842-20.59-3.77-18.995-1.377-21.315 6.932-6.593 1.44-18.156-7.518-17.784z" fill="#61dafb"/></svg><view id="social" viewBox="0 120 60 60"/><svg version="1.0" width="60" height="60" viewBox="-24.62 -24.62 289.23 289.23" y="120" xmlns="http://www.w3.org/2000/svg"><path d="M151.006 33.413c0 .355-1.351.853-2.986 1.137-15.781 2.488-31.207 15.71-36.681 31.35-.853 2.275-1.706 5.474-1.99 7.037-.285 1.564-.711 3.555-1.067 4.337l-.568 1.564-5.9-1.635c-19.408-5.26-31.635-12.654-46.847-28.15-8.46-8.602-10.024-9.882-11.943-9.882-2.843 0-7.82 3.341-10.52 6.967-5.73 6.88-8.016 13.619-7.607 24.311.426 0 .995 1.849 1.208 4.408.285 2.488.782 5.9 1.138 7.677l.64 3.2c-2.647 5.828-3.26 12.003-2.702 18.837.958 3.988 1.443 5.447 1.941 7.038.697 2.087.818 2.543 1.192 3.61.345.798 1.275 2.575 2.34 4.778l1.92 3.91c2.038 3.984 3.324 6.846 5.474 9.81.924-.569 1.066-.355.782 1.138-.498 2.843 1.92 9.24 6.256 16.634 1.35 2.204 5.26 6.611 9.241 10.379 3.483 3.27 3.554 2.914-1.422 4.55-.995.355-4.763.994-8.388 1.492-5.332.711-7.749.711-12.511-.071-5.048-.782-6.114-.782-7.891.213-1.209.569 3.37-2.413-7.72 8.677.91 4.611 3.29 7.315 3.29 7.315 1.291.76 2.866 2.775 3.364 3.344.497.569 1.706 1.493 2.772 1.99 5.758 3.057 7.89 4.408 7.89 5.048 5.153 2.623 7.72 3.189 12.228 4.691 1.066 0 2.132.356 2.346.711.213.427 1.208.711 2.132.711.924 0 1.92.285 2.133.711.213.355 1.137.71 2.061.71.924 0 2.702.499 3.981 1.138 4.433 1.34 7.027 1.72 14.644 3.128h8.957c13.936.25 15.98.322 30.426-1.99 7.25-1.777 12.582-2.986 13.15-2.986 24.104-9.594 25.877-10.553 42.937-25.947 22.109-20.9 35.26-48.624 37.606-79.262l.64-8.175 5.686-5.687c5.403-5.474 11.588-13.649 11.588-15.284 0-.426.497-.924 1.066-1.137 1.208-.498 1.564-5.972.355-5.972-.355 0-.853-.782-1.137-1.777-.213-.995-1.35-2.559-2.488-3.483-1.92-1.635-2.062-2.133-2.062-6.54 0-4.052-.284-5.118-1.848-7.18-1.99-2.63-5.687-4.478-8.957-4.478-1.137 0-4.194 1.066-6.824 2.417-11.232 5.686-13.436 6.184-16.635 3.767-4.976-3.767-12.582-6.966-18.838-7.962-1.706-.284-3.057-.782-3.057-1.137s-2.843-.64-6.397-.64c-3.484 0-6.398.285-6.398.64zm14.075 11.516c3.27.711 4.62 1.209 8.53 2.915 2.346 1.066 7.82 4.62 9.668 6.398 2.133 1.919 5.83 1.635 12.512-1.067.995-.355 2.488-.995 3.412-1.28 3.27-1.279 5.545-2.416 7.464-3.696 5.758-3.91.782 7.678-6.256 14.43-2.488 2.347-4.265 4.337-4.052 4.337 2.204.356 10.663-1.777 14.929-3.839 1.137-.497 1.848-.497 2.346 0 .995.996-4.55 7.607-12.085 14.502-3.2 2.844-5.616 5.616-5.474 6.114.427 1.137-.782 16.35-1.777 21.54-4.052 22.107-14.928 43.434-29.857 58.29-12.227 12.228-21.042 18.412-33.695 23.815-1.564.64-3.483 1.493-4.265 1.848-3.981 1.635-10.948 3.484-21.327 5.616-5.758 1.209-30.78 1.209-35.899.071-4.123-.995-7.748-1.848-12.44-3.056-2.701-.711-3.483-.996-7.82-2.702-.995-.426-2.488-.995-3.34-1.35-1.494-.57-8.389-3.91-12.725-6.256-1.777-.853-3.981-2.986-3.412-3.128.142 0 4.833-.142 10.307-.284 5.545-.143 11.445-.64 13.151-1.067a352.502 352.502 0 0 0 5.972-1.564c7.18-1.848 17.843-6.824 23.316-10.805l2.062-1.493-3.128-.497c-4.834-.711-7.89-1.635-12.37-3.839-5.473-2.63-14.217-11.303-16.847-16.706-2.914-6.042-2.914-6.042 4.194-5.686 6.682.213 9.242-.711 5.545-2.062-6.469-2.417-14.573-8.317-16.279-11.73-.569-1.208-1.706-2.843-2.56-3.625-2.985-2.63-6.326-11.73-6.326-17.203 0-3.057.213-3.697 1.28-3.697.71 0 1.564.285 1.92.57.994.852 5.188 2.06 8.885 2.63l3.199.568-4.62-4.905c-5.19-5.545-7.891-10.379-9.882-17.772-.995-3.767-.995-14.004 0-17.274 1.209-3.91 3.626-8.744 4.62-9.1.498-.212 4.266 2.987 8.318 7.039 12.511 12.44 30.07 22.89 45.283 27.013 6.184 1.635 8.53 2.132 14.217 3.128 3.341.497 7.109.995 8.46.995 1.99 0 2.274-.214 1.848-1.28-1.067-2.63-1.209-8.744-.356-13.435 3.341-18.199 19.194-31.776 37.534-32.132 2.488-.07 5.972.285 7.82.711z" fill="#61dafb"/></svg><view id="timeline" viewBox="0 180 60 60"/><svg version="1.0" width="60" height="60" viewBox="-24.62 -24.62 289.23 289.23" y="180" xmlns="http://www.w3.org/2000/svg"><path d="M123.454 15.535c-7.15.045-15.578.468-16.75 1.132-.973.487-2.78.973-4.1.973-1.32 0-3.335.278-4.516.625-1.181.348-3.544 1.043-5.28 1.46-1.738.486-3.684 1.112-4.309 1.46-.695.347-1.737.624-2.293.624s-1.597.278-2.292.625c-.626.348-2.433 1.181-3.962 1.807-15.008 6.323-29.946 17.51-39.534 29.53-9.773 11.5-17.728 25.49-20.637 40.3-4.06 17.697-5.027 27.575-.486 51.14 1.429 8.825 4.418 16.455 7.81 23.041 4.162 7.572 6.333 11.179 12.548 18.717 1.46 1.876 4.17 4.933 6.045 6.809l3.335 3.474c4.49 4.916 7.518 7.226 12.437 10.006 4.03 2.71 7.713 5.002 11.395 6.878 7.354 4.43 8.787 4.96 17.65 7.296 1.111.208 3.334.765 5.071 1.181 1.737.417 4.725 1.042 6.601 1.25 1.946.278 3.978.743 6.772 1.022 3.309.34 5.888.469 11.989.647l7.642-.418c8.686-.417 11.326-.833 22.79-3.751 1.39-.417 8.336-2.624 13.26-4.813 21.122-11.937 23.312-13.922 38.366-30.97 2.85-3.752 5.141-6.95 5.141-7.158 0-.208.904-1.667 1.946-3.265 1.807-2.71 5.697-10.422 7.157-14.244.347-.834.903-2.223 1.25-3.127 1.251-3.196 2.154-6.184 4.239-14.244 1.39-5.559 1.668-9.31 1.668-22.72 0-12.994-.417-17.718-2.363-25.361-.416-1.737-.973-3.961-1.181-5.073-.209-1.042-.626-2.085-.973-2.293-.348-.208-.625-.972-.625-1.736 0-.695-.278-1.877-.625-2.571-.348-.626-1.181-2.432-1.807-3.96-4.725-11.396-13.897-25.084-22.235-33.352-3.682-3.613-11.603-9.937-16.675-13.342-6.323-4.169-17.51-9.935-19.247-9.935-.556 0-1.25-.278-1.667-.556-.765-.695-4.656-1.876-13.827-4.238-1.529-.417-4.239-.903-6.045-1.112-1.876-.278-3.335-.695-3.335-1.112 0-.487-4.788-.68-10.348-.646zm-5.636 11.137c3.902-.01 9.504.261 12.717.695 8.06 1.182 15.565 2.85 18.9 4.17.764.347 2.64 1.042 4.169 1.528 3.683 1.181 15.216 7.157 19.107 9.867 17.996 12.507 32.31 32.24 37.66 51.834 4.517 16.606 5.003 29.182 1.876 44.816-.834 4.1-1.945 8.477-2.71 10.422-.277.764-.903 2.502-1.39 3.822-1.598 4.516-6.53 14.244-9.796 19.107-8.13 12.16-19.178 22.582-31.407 29.46-6.183 3.475-7.295 4.03-11.255 5.559-2.293.903-4.794 1.807-5.559 2.155-1.32.556-5.142 1.597-10.075 2.778-9.866 2.432-29.6 2.432-39.258-.069-9.102-2.362-8.129-2.085-13.2-4.1-4.587-1.806-5.838-2.43-9.729-4.376-22.512-11.326-42.106-35.992-47.734-59.894-1.807-7.643-2.084-10.632-2.432-21.193-.278-10.7.209-17.3 1.807-23.276 2.71-10.075 3.127-11.117 7.296-19.803 3.543-7.434 5.766-11.048 10.491-17.093 9.867-12.576 25.222-24.179 38.91-29.39 2.293-.834 4.725-1.876 5.35-2.224.695-.347 2.015-.625 2.919-.625.972 0 1.876-.278 2.084-.626.417-.625 1.668-.903 11.118-2.153 3.057-.417 5.697-.834 5.836-1.043.234-.234 1.964-.342 4.305-.348zm2.629 23.772a5.673 5.673 0 0 0-1.932.34c-2.64 1.041-2.709 2.014-2.778 27.306 0 13.549-.278 25.014-.556 25.43-.278.418-1.46 1.251-2.641 1.877-3.127 1.598-7.504 6.878-8.477 10.074-2.432 8.13 1.251 17.232 8.547 20.984 2.71 1.39 4.377 1.737 8.407 1.737 5.697 0 5.142-.278 13.48 7.574 2.849 2.71 9.102 8.615 13.827 13.132 7.226 6.878 8.893 8.129 10.77 8.129 3.404-.07 4.932-1.667 4.932-5.072 0-2.78-.347-3.196-6.253-8.824-3.405-3.266-8.894-8.407-12.16-11.534-3.265-3.057-7.017-6.6-8.338-7.782l-2.362-2.154 1.25-2.641c1.668-3.405 2.155-9.518 1.183-13.201-1.043-3.821-4.586-8.338-8.06-10.284l-2.78-1.529-.347-24.943c-.209-13.688-.626-25.5-.973-26.195-.73-1.512-2.749-2.437-4.74-2.424z" fill="#61dafb"/></svg></svg>