<?xml version="1.0" encoding="UTF-8" standalone="no"?>
<svg
   xmlns:dc="http://purl.org/dc/elements/1.1/"
   xmlns:cc="http://creativecommons.org/ns#"
   xmlns:rdf="http://www.w3.org/1999/02/22-rdf-syntax-ns#"
   xmlns:svg="http://www.w3.org/2000/svg"
   xmlns="http://www.w3.org/2000/svg"
   xmlns:sodipodi="http://sodipodi.sourceforge.net/DTD/sodipodi-0.dtd"
   xmlns:inkscape="http://www.inkscape.org/namespaces/inkscape"
   height="100"
   width="100"
   version="1.1"
   x="0px"
   y="0px"
   viewBox="0 0 33.333333 33.333334"
   enable-background="new 0 0 100 100"
   xml:space="preserve"
   id="svg18"
   sodipodi:docname="bucket-list.svg"
   style="fill:#000000"
   inkscape:version="0.92.3 (2405546, 2018-03-11)"><metadata
     id="metadata24"><rdf:RDF><cc:Work
         rdf:about=""><dc:format>image/svg+xml</dc:format><dc:type
           rdf:resource="http://purl.org/dc/dcmitype/StillImage" /><dc:title></dc:title></cc:Work></rdf:RDF></metadata><defs
     id="defs22" /><sodipodi:namedview
     pagecolor="#ffffff"
     bordercolor="#666666"
     borderopacity="1"
     objecttolerance="10"
     gridtolerance="10"
     guidetolerance="10"
     inkscape:pageopacity="0"
     inkscape:pageshadow="2"
     inkscape:window-width="1920"
     inkscape:window-height="983"
     id="namedview20"
     showgrid="false"
     fit-margin-top="0"
     fit-margin-left="0"
     fit-margin-right="0"
     fit-margin-bottom="0"
     inkscape:zoom="6.2933333"
     inkscape:cx="49.080589"
     inkscape:cy="50.722549"
     inkscape:window-x="0"
     inkscape:window-y="25"
     inkscape:window-maximized="1"
     inkscape:current-layer="svg18" /><g
     id="g16"
     transform="matrix(0.2962963,0,0,0.2962963,2.0959423,1.8483208)"><path
       d="M 86.534,52.297 C 82.642,44.604 78.162,37.487 75.87,33.973 c 2.619,-0.772 4.919,-1.654 6.899,-2.621 l -1.516,6.984 c -0.3,1.38 0.576,2.742 1.956,3.041 0.183,0.041 0.366,0.059 0.545,0.059 1.178,0 2.235,-0.817 2.496,-2.014 l 2.66,-12.256 c 1.912,-1.931 2.886,-3.993 2.886,-6.051 C 91.795,13.106 77.147,5 49.154,5 21.158,5 6.512,13.106 6.512,21.115 c 0,2.041 0.957,4.088 2.839,6.007 0.006,0.136 0.018,0.274 0.047,0.413 l 12.498,57.202 c 0.103,0.46 0.328,0.886 0.656,1.226 4.131,4.291 14.076,8.902 26.273,9.034 C 48.867,95 48.908,95 48.949,95 h 0.41 c 0.041,0 0.081,0 0.12,-0.003 12.199,-0.132 22.146,-4.743 26.273,-9.034 0.33,-0.341 0.557,-0.766 0.656,-1.23 l 1.33,-6.119 c 2.455,2.546 4.778,3.498 6.467,3.816 0.52,0.098 1.039,0.145 1.548,0.145 1.564,0 3.057,-0.454 4.312,-1.333 5.524,-3.867 4.37,-13.333 -3.531,-28.945 z M 21.628,13.95 c 7.314,-2.474 17.089,-3.836 27.526,-3.836 22.907,0 37.528,6.516 37.528,11.001 0,0.775 -0.52,1.781 -1.739,2.878 -0.064,0.053 -0.13,0.104 -0.19,0.163 -1.551,1.334 -4.126,2.789 -8.074,4.124 -7.314,2.476 -17.089,3.838 -27.524,3.838 -22.91,0 -37.529,-6.517 -37.529,-11.002 -10e-4,-1.746 2.618,-4.67 10.002,-7.166 z m 65.506,63.103 c -0.542,0.379 -1.21,0.498 -1.983,0.352 -1.059,-0.199 -3.205,-1.087 -5.673,-4.789 -0.103,-0.154 -0.22,-0.292 -0.347,-0.415 l 2.815,-12.965 c 0.302,-1.38 -0.574,-2.741 -1.954,-3.041 -1.383,-0.302 -2.742,0.576 -3.041,1.956 l -5.373,24.74 C 68.376,85.761 60.044,89.836 49.154,89.887 38.261,89.836 29.929,85.761 26.727,82.889 L 15.457,31.313 c 7.116,3.498 18.412,5.917 33.697,5.917 8.351,0 15.504,-0.725 21.445,-1.951 15.163,22.357 20.411,39.061 16.535,41.774 z"
       id="path2"
       style="fill:#d3d3d3;fill-opacity:1"
       inkscape:connector-curvature="0" /><path
       d="m 31.06,54.077 c 0.091,0.01 0.179,0.013 0.267,0.013 0.617,0 1.216,-0.223 1.685,-0.631 L 41.195,46.3 c 1.062,-0.93 1.169,-2.546 0.24,-3.609 -0.932,-1.061 -2.546,-1.169 -3.609,-0.24 l -6.105,5.344 -1.415,-1.884 c -0.847,-1.131 -2.449,-1.359 -3.58,-0.513 -1.128,0.847 -1.358,2.449 -0.51,3.58 l 3.067,4.09 c 0.426,0.569 1.071,0.934 1.777,1.009 z"
       id="path4"
       style="fill:#61dafb;fill-opacity:1"
       inkscape:connector-curvature="0" /><path
       d="m 32.084,68.396 c 0.089,0.009 0.177,0.015 0.265,0.015 0.618,0 1.216,-0.224 1.685,-0.633 l 8.183,-7.16 c 1.062,-0.929 1.169,-2.544 0.24,-3.608 -0.93,-1.062 -2.546,-1.17 -3.609,-0.24 l -6.105,5.344 -1.415,-1.885 C 30.481,59.1 28.879,58.87 27.749,59.716 c -1.129,0.848 -1.359,2.451 -0.511,3.58 l 3.067,4.091 c 0.427,0.569 1.071,0.935 1.779,1.009 z"
       id="path6"
       style="fill:#61dafb;fill-opacity:1"
       inkscape:connector-curvature="0" /><path
       d="m 40.894,70.065 -6.107,5.342 -1.414,-1.885 c -0.848,-1.131 -2.451,-1.359 -3.58,-0.511 -1.129,0.848 -1.358,2.451 -0.511,3.579 l 3.067,4.093 c 0.428,0.568 1.072,0.935 1.781,1.008 0.088,0.009 0.176,0.015 0.265,0.015 0.617,0 1.216,-0.223 1.683,-0.633 l 8.183,-7.16 c 1.063,-0.929 1.169,-2.544 0.24,-3.606 -0.93,-1.065 -2.544,-1.173 -3.607,-0.242 z"
       id="path8"
       style="fill:#61dafb;fill-opacity:1"
       inkscape:connector-curvature="0" /><path
       d="m 64.053,58.361 c -7.513,3.287 -14.194,1.865 -14.319,1.866 -1.412,0.001 -2.555,1.146 -2.555,2.558 0,1.412 1.146,2.555 2.558,2.555 0.313,0 7.793,1.459 16.365,-2.292 1.295,-0.567 1.884,-2.074 1.318,-3.368 -0.566,-1.295 -2.074,-1.884 -3.367,-1.319 z"
       id="path10"
       style="fill:#d3d3d3;fill-opacity:1"
       inkscape:connector-curvature="0" /><path
       d="m 65.075,45.321 c -7.56,3.308 -15.265,1.866 -15.341,1.866 -1.412,0.003 -2.555,1.146 -2.555,2.558 0,1.412 1.146,2.556 2.558,2.556 0.356,0 8.815,1.458 17.388,-2.294 1.295,-0.567 1.884,-2.074 1.318,-3.368 -0.566,-1.294 -2.074,-1.885 -3.368,-1.318 z"
       id="path12"
       style="fill:#d3d3d3;fill-opacity:1"
       inkscape:connector-curvature="0" /><path
       d="m 63.029,72.201 c -7.485,3.275 -13.184,1.865 -13.298,1.866 -1.409,0.003 -2.552,1.146 -2.552,2.556 0,1.414 1.146,2.556 2.558,2.556 0.272,0 6.769,1.459 15.343,-2.292 1.293,-0.567 1.884,-2.074 1.318,-3.368 -0.567,-1.294 -2.074,-1.883 -3.369,-1.318 z"
       id="path14"
       style="fill:#d3d3d3;fill-opacity:1"
       inkscape:connector-curvature="0" /></g></svg>