<?xml version="1.0" encoding="UTF-8" standalone="no"?>
<svg
   xmlns:dc="http://purl.org/dc/elements/1.1/"
   xmlns:cc="http://creativecommons.org/ns#"
   xmlns:rdf="http://www.w3.org/1999/02/22-rdf-syntax-ns#"
   xmlns:svg="http://www.w3.org/2000/svg"
   xmlns="http://www.w3.org/2000/svg"
   xmlns:sodipodi="http://sodipodi.sourceforge.net/DTD/sodipodi-0.dtd"
   xmlns:inkscape="http://www.inkscape.org/namespaces/inkscape"
   version="1.1"
   viewBox="0 0 26 26"
   enable-background="new 0 0 21.9 21.9"
   id="svg4"
   sodipodi:docname="cancel.svg"
   width="26"
   height="26"
   inkscape:version="0.92.3 (2405546, 2018-03-11)">
  <metadata
     id="metadata10">
    <rdf:RDF>
      <cc:Work
         rdf:about="">
        <dc:format>image/svg+xml</dc:format>
        <dc:type
           rdf:resource="http://purl.org/dc/dcmitype/StillImage" />
        <dc:title></dc:title>
      </cc:Work>
    </rdf:RDF>
  </metadata>
  <defs
     id="defs8" />
  <sodipodi:namedview
     pagecolor="#ffffff"
     bordercolor="#666666"
     borderopacity="1"
     objecttolerance="10"
     gridtolerance="10"
     guidetolerance="10"
     inkscape:pageopacity="0"
     inkscape:pageshadow="2"
     inkscape:window-width="1920"
     inkscape:window-height="983"
     id="namedview6"
     showgrid="false"
     inkscape:zoom="10.776256"
     inkscape:cx="11.135593"
     inkscape:cy="10.95"
     inkscape:window-x="0"
     inkscape:window-y="25"
     inkscape:window-maximized="1"
     inkscape:current-layer="svg4" />
  <path
     d="m 15.955932,13.265678 c -0.2,-0.2 -0.2,-0.5 0,-0.7 l 7.5,-7.4999996 c 0.2,-0.2 0.3,-0.5 0.3,-0.7 0,-0.2 -0.1,-0.5 -0.3,-0.7 l -1.4,-1.4 c -0.2,-0.2 -0.5,-0.3 -0.7,-0.3 -0.3,0 -0.5,0.1 -0.7,0.3 l -7.5,7.4999996 c -0.2,0.2 -0.5,0.2 -0.7,0 L 4.9559322,2.2656784 c -0.2,-0.2 -0.5,-0.3 -0.7,-0.3 -0.2,0 -0.5,0.1 -0.7,0.3 l -1.4,1.4 c -0.2,0.2 -0.3,0.5 -0.3,0.7 0,0.2 0.1,0.5 0.3,0.7 l 7.5,7.4999996 c 0.2,0.2 0.2,0.5 0,0.7 l -7.5,7.5 c -0.2,0.2 -0.3,0.5 -0.3,0.7 0,0.2 0.1,0.5 0.3,0.7 l 1.4,1.4 c 0.2,0.2 0.5,0.3 0.7,0.3 0.2,0 0.5,-0.1 0.7,-0.3 l 7.4999998,-7.5 c 0.2,-0.2 0.5,-0.2 0.7,0 l 7.5,7.5 c 0.2,0.2 0.5,0.3 0.7,0.3 0.2,0 0.5,-0.1 0.7,-0.3 l 1.4,-1.4 c 0.2,-0.2 0.3,-0.5 0.3,-0.7 0,-0.2 -0.1,-0.5 -0.3,-0.7 z"
     id="path2"
     inkscape:connector-curvature="0"
     style="fill:#ffffff;fill-opacity:1" />
</svg>
