<?xml version="1.0" encoding="UTF-8" standalone="no"?>
<!-- Generator: Adobe Illustrator 19.0.0, SVG Export Plug-In . SVG Version: 6.00 Build 0)  -->

<svg
   xmlns:dc="http://purl.org/dc/elements/1.1/"
   xmlns:cc="http://creativecommons.org/ns#"
   xmlns:rdf="http://www.w3.org/1999/02/22-rdf-syntax-ns#"
   xmlns:svg="http://www.w3.org/2000/svg"
   xmlns="http://www.w3.org/2000/svg"
   xmlns:sodipodi="http://sodipodi.sourceforge.net/DTD/sodipodi-0.dtd"
   xmlns:inkscape="http://www.inkscape.org/namespaces/inkscape"
   version="1.1"
   id="Capa_1"
   x="0px"
   y="0px"
   viewBox="0 0 70.000003 70.000003"
   xml:space="preserve"
   sodipodi:docname="close.svg"
   inkscape:version="0.92.3 (2405546, 2018-03-11)"
   width="70"
   height="70"><metadata
   id="metadata47"><rdf:RDF><cc:Work
       rdf:about=""><dc:format>image/svg+xml</dc:format><dc:type
         rdf:resource="http://purl.org/dc/dcmitype/StillImage" /><dc:title></dc:title></cc:Work></rdf:RDF></metadata><defs
   id="defs45" /><sodipodi:namedview
   pagecolor="#ffffff"
   bordercolor="#666666"
   borderopacity="1"
   objecttolerance="10"
   gridtolerance="10"
   guidetolerance="10"
   inkscape:pageopacity="0"
   inkscape:pageshadow="2"
   inkscape:window-width="1920"
   inkscape:window-height="983"
   id="namedview43"
   showgrid="false"
   inkscape:zoom="9.0557867"
   inkscape:cx="48.030739"
   inkscape:cy="30.18151"
   inkscape:window-x="0"
   inkscape:window-y="25"
   inkscape:window-maximized="1"
   inkscape:current-layer="Capa_1"
   fit-margin-top="0"
   fit-margin-left="0"
   fit-margin-right="0"
   fit-margin-bottom="0" />
<g
   id="g10"
   transform="matrix(0.16958178,0,0,0.16958178,10.82181,9.6200649)">
	<path
   d="M 147.421,0 C 66.133,0 0,66.133 0,147.421 c 0,81.288 66.133,147.421 147.421,147.421 38.287,0 74.567,-14.609 102.159,-41.136 2.389,-2.296 2.464,-6.095 0.167,-8.483 -2.295,-2.388 -6.093,-2.464 -8.483,-0.167 -25.345,24.367 -58.672,37.786 -93.842,37.786 C 72.75,282.843 12,222.093 12,147.421 12,72.749 72.75,12 147.421,12 c 74.671,0 135.421,60.75 135.421,135.421 0,16.842 -3.052,33.273 -9.071,48.835 -1.195,3.091 0.341,6.565 3.432,7.761 3.092,1.193 6.565,-0.341 7.761,-3.432 6.555,-16.949 9.879,-34.836 9.879,-53.165 C 294.843,66.133 228.71,0 147.421,0 Z"
   id="path2"
   style="fill:#d3d3d3;fill-opacity:1"
   inkscape:connector-curvature="0" />
	<path
   d="m 167.619,160.134 c -2.37,-2.319 -6.168,-2.277 -8.485,0.09 -2.318,2.368 -2.277,6.167 0.09,8.485 l 47.236,46.236 c 1.168,1.143 2.683,1.712 4.197,1.712 1.557,0 3.113,-0.603 4.288,-1.803 2.318,-2.368 2.277,-6.167 -0.09,-8.485 z"
   id="path4"
   style="fill:#61dafb;fill-opacity:1"
   inkscape:connector-curvature="0" />
	<path
   d="m 125.178,133.663 c 1.171,1.171 2.707,1.757 4.243,1.757 1.536,0 3.071,-0.586 4.243,-1.757 2.343,-2.343 2.343,-6.142 0,-8.485 L 88.428,79.942 c -2.343,-2.343 -6.143,-2.343 -8.485,0 -2.343,2.343 -2.343,6.142 0,8.485 z"
   id="path6"
   style="fill:#61dafb;fill-opacity:1"
   inkscape:connector-curvature="0" />
	<path
   d="m 214.9,79.942 c -2.343,-2.343 -6.143,-2.343 -8.485,0 L 79.942,206.415 c -2.343,2.343 -2.343,6.142 0,8.485 1.171,1.171 2.707,1.757 4.243,1.757 1.536,0 3.071,-0.586 4.243,-1.757 L 214.9,88.428 c 2.343,-2.344 2.343,-6.142 0,-8.486 z"
   id="path8"
   style="fill:#61dafb;fill-opacity:1"
   inkscape:connector-curvature="0" />
</g>
<g
   id="g12"
   transform="translate(0,-224.842)">
</g>
<g
   id="g14"
   transform="translate(0,-224.842)">
</g>
<g
   id="g16"
   transform="translate(0,-224.842)">
</g>
<g
   id="g18"
   transform="translate(0,-224.842)">
</g>
<g
   id="g20"
   transform="translate(0,-224.842)">
</g>
<g
   id="g22"
   transform="translate(0,-224.842)">
</g>
<g
   id="g24"
   transform="translate(0,-224.842)">
</g>
<g
   id="g26"
   transform="translate(0,-224.842)">
</g>
<g
   id="g28"
   transform="translate(0,-224.842)">
</g>
<g
   id="g30"
   transform="translate(0,-224.842)">
</g>
<g
   id="g32"
   transform="translate(0,-224.842)">
</g>
<g
   id="g34"
   transform="translate(0,-224.842)">
</g>
<g
   id="g36"
   transform="translate(0,-224.842)">
</g>
<g
   id="g38"
   transform="translate(0,-224.842)">
</g>
<g
   id="g40"
   transform="translate(0,-224.842)">
</g>
</svg>