<?xml version="1.0" encoding="UTF-8" standalone="no"?>
<svg
   xmlns:dc="http://purl.org/dc/elements/1.1/"
   xmlns:cc="http://creativecommons.org/ns#"
   xmlns:rdf="http://www.w3.org/1999/02/22-rdf-syntax-ns#"
   xmlns:svg="http://www.w3.org/2000/svg"
   xmlns="http://www.w3.org/2000/svg"
   xmlns:sodipodi="http://sodipodi.sourceforge.net/DTD/sodipodi-0.dtd"
   xmlns:inkscape="http://www.inkscape.org/namespaces/inkscape"
   version="1.0"
   width="320"
   height="320"
   viewBox="0 0 240.00001 240.00001"
   preserveAspectRatio="xMidYMid meet"
   id="svg8"
   sodipodi:docname="community.svg"
   inkscape:version="0.92.3 (2405546, 2018-03-11)">
  <defs
     id="defs12" />
  <sodipodi:namedview
     pagecolor="#ffffff"
     bordercolor="#666666"
     borderopacity="1"
     objecttolerance="10"
     gridtolerance="10"
     guidetolerance="10"
     inkscape:pageopacity="0"
     inkscape:pageshadow="2"
     inkscape:window-width="1920"
     inkscape:window-height="1056"
     id="namedview10"
     showgrid="false"
     fit-margin-top="0"
     fit-margin-left="0"
     fit-margin-right="0"
     fit-margin-bottom="0"
     inkscape:zoom="0.5006316"
     inkscape:cx="-820.53365"
     inkscape:cy="257.87524"
     inkscape:window-x="1920"
     inkscape:window-y="0"
     inkscape:window-maximized="1"
     inkscape:current-layer="svg8"
     units="px" />
  <metadata
     id="metadata2">
Created by potrace 1.13, written by Peter Selinger 2001-2015
<rdf:RDF>
  <cc:Work
     rdf:about="">
    <dc:format>image/svg+xml</dc:format>
    <dc:type
       rdf:resource="http://purl.org/dc/dcmitype/StillImage" />
    <dc:title></dc:title>
  </cc:Work>
</rdf:RDF>
</metadata>
  <g
     transform="matrix(0.02270116,0,0,-0.02270116,7.490321,235.68289)"
     id="g6"
     style="fill:#61dafb;fill-opacity:1;stroke:none">
    <path
       style="fill:#61dafb;fill-opacity:1;stroke-width:0.04040994"
       d="m 278.68555,18.582031 c -13.13324,0 -24.56812,4.767471 -34.06446,14.142578 -14.83045,14.709221 -18.54927,36.2083 -9.45703,54.796875 2.74788,5.657393 6.02177,10.020825 10.99219,14.667966 l 3.87891,3.59766 -2.18164,1.13086 c -5.6574,2.8691 -13.33569,8.8909 -17.61914,13.86133 -7.11216,8.28404 -12.60747,19.23379 -14.30469,28.44726 -0.32328,1.73763 -0.64621,2.58621 -0.88867,2.34375 -0.24246,-0.24246 -0.88995,-2.34298 -1.4961,-4.76758 -2.8691,-11.11273 -8.28371,-20.65029 -16.52734,-28.85351 -4.36428,-4.32387 -7.83851,-7.03101 -13.0918,-10.14258 -1.93968,-1.13148 -3.47596,-2.22117 -3.43555,-2.38281 0.0808,-0.16164 1.33431,-1.37485 2.78907,-2.66797 8.56691,-7.556661 14.14188,-17.538534 15.91992,-28.449219 4.72796,-29.135572 -18.30408,-55.966464 -47.84375,-55.683594 -2.58624,0.04041 -5.57751,0.202247 -6.70899,0.404297 -11.15314,2.060907 -19.59837,6.383535 -27.07421,13.859375 -8.08199,8.081989 -12.60788,17.619612 -13.94141,29.378906 -1.65681,14.385941 4.84914,30.629602 16.28516,40.449215 1.61639,1.37394 2.9082,2.66709 2.9082,2.86914 0,0.20205 -1.00841,0.93022 -2.2207,1.61719 -4.48551,2.46501 -9.25448,5.9409 -12.81055,9.29492 l -1.65625,1.61524 -3.79883,-1.08985 c -14.183891,-4.00058 -28.086258,-2.54742 -41.138671,4.32227 -13.658562,7.19297 -24.16422,20.40844 -28.083985,35.2793 -2.343777,8.9306 -2.343777,19.67877 0,28.60937 1.656808,6.34436 5.535783,14.2655 9.617188,19.59961 2.424597,3.19239 8.527242,9.21374 11.517578,11.35547 1.778038,1.25271 2.383221,1.89817 2.019531,2.14062 -0.282869,0.16164 -2.22169,1.25194 -4.242187,2.42383 -7.354611,4.16223 -15.072879,10.62951 -20.326172,17.05469 -6.586821,8.04158 -11.880091,18.79009 -14.304688,28.89258 -1.656807,6.86969 -1.859375,10.70933 -1.859375,33.01562 0,20.44744 0.0402,21.65792 0.767579,23.07227 1.414348,2.74788 4.44517,4.80951 10.951171,7.47656 10.708636,4.36428 21.093412,6.62687 38.792969,8.44531 6.869691,0.68697 35.683182,0.68697 42.431642,0 12.64831,-1.29311 23.71914,-3.27219 30.91211,-5.53515 1.77804,-0.56574 3.47494,-1.00977 3.75781,-1.00977 0.36369,0 0.48633,3.95889 0.48633,18.54688 0,20.36661 -0.04,20.12423 2.50586,22.54883 2.94992,2.82869 11.55653,6.54731 20.93164,9.05273 25.45827,6.74846 69.10146,6.99098 95.28711,0.52539 10.42576,-2.58624 19.7606,-6.46656 23.07422,-9.57812 2.50541,-2.38419 2.46484,-2.06038 2.46484,-22.50782 0,-13.29487 0.12008,-18.58789 0.44336,-18.58789 0.24246,0 1.93936,0.44403 3.75781,1.00977 7.47584,2.26296 17.53799,4.12168 28.9336,5.33398 8.44568,0.88902 36.57123,1.00937 44.45117,0.20117 19.9221,-2.0609 31.31749,-4.7267 41.94531,-9.81836 4.4855,-2.14172 7.15395,-4.28419 8.04297,-6.30468 0.8082,-2.0205 0.76658,-44.00607 -0.082,-49.62305 -1.49517,-9.90044 -4.88882,-19.23623 -9.98047,-27.43945 -6.14231,-9.90044 -15.92122,-19.27452 -25.78125,-24.68946 -5.49575,-3.03074 -5.25434,-2.62686 -2.54688,-4.44531 3.51567,-2.42459 10.50664,-9.61842 13.29493,-13.74023 9.29428,-13.69897 12.20519,-30.22571 8.04297,-46.06641 -2.8287,-10.91068 -9.77987,-21.69961 -18.54883,-28.89258 -14.54758,-11.84011 -33.50048,-15.84044 -50.47266,-10.66797 -1.81845,0.56574 -3.71821,1.13073 -4.20312,1.25196 -0.68697,0.16164 -1.65508,-0.48556 -4.44336,-2.91016 -3.71772,-3.2732 -7.59782,-6.01964 -11.51758,-8.24219 l -2.30274,-1.33398 4.76758,-4.6875 c 6.46559,-6.425182 10.30392,-12.488126 12.72852,-20.166016 5.37452,-17.174228 0.92997,-34.994462 -12.08203,-48.046875 -9.29429,-9.334698 -21.0138,-14.304688 -33.66211,-14.304688 z m -128.5293,16.291016 c 3.25426,0.0322 7.81497,0.479788 9.9668,1.085937 9.13264,2.545827 16.689,8.929322 20.56836,17.375 2.0609,4.485504 2.70898,7.638135 2.70898,13.335938 0.0404,6.384771 -0.76849,9.859518 -3.43555,14.951172 -6.06149,11.718884 -18.91182,18.548646 -31.92382,16.972656 -7.63748,-0.929429 -13.4563,-3.757684 -18.75,-9.091797 -5.01084,-5.051243 -7.59677,-9.618393 -8.97071,-16.083984 -0.84861,-4.162225 -0.52675,-12.041309 0.68555,-15.839844 3.91976,-12.284624 13.86085,-20.730986 26.46875,-22.589844 0.65666,-0.09092 1.59689,-0.125968 2.68164,-0.115234 z m 126.40039,0.01758 c 3.46642,-0.05304 7.98933,0.371288 10.53516,1.068359 10.66822,2.990336 18.83105,11.153162 22.02343,22.023438 1.45476,4.808784 1.53531,12.042037 0.24219,16.93164 -2.94992,11.072326 -11.63888,19.920562 -22.46875,22.830079 -5.05124,1.333528 -12.40504,1.253586 -17.53711,-0.201172 -12.12298,-3.475256 -21.21516,-14.304676 -22.66992,-27.074219 -1.93968,-17.133817 9.82005,-32.611499 26.87305,-35.359375 0.8082,-0.131332 1.84648,-0.201071 3.00195,-0.21875 z M 151.12109,114.91992 c 3.5083,-0.0679 6.98205,0.21938 10.21485,0.88867 12.32503,2.54583 23.5179,9.94123 30.18554,19.96289 5.13207,7.7183 8.28516,17.85995 8.28516,26.62891 0,3.03075 -0.12154,3.23282 -2.62695,4.04102 -3.39444,1.09106 -10.66807,4.88985 -14.0625,7.31445 -6.66764,4.80878 -12.8095,11.71927 -16.64844,18.79102 -2.4246,4.44509 -3.63764,7.47541 -5.13281,13.13281 -1.05066,4.00058 -1.25243,5.57624 -1.41406,11.31445 -0.24246,7.39502 0.28311,11.59765 2.10156,17.98242 1.33353,4.56633 4.40493,11.03342 7.31445,15.47852 2.74788,4.12181 8.40358,10.10193 12.52539,13.2539 1.65681,1.25271 2.99024,2.4237 2.99024,2.54493 0,0.16164 -0.84778,0.68756 -1.89844,1.21289 -5.81903,2.78828 -14.18421,9.17268 -19.4375,14.83008 -1.77804,1.85885 -3.39426,3.39453 -3.63672,3.39453 -0.24246,0 -0.40295,-1.41492 -0.44336,-3.55664 -0.16164,-14.95168 -5.09344,-29.53852 -14.06445,-41.6211 -3.11157,-4.24304 -11.31434,-12.32607 -15.47657,-15.3164 -1.89926,-1.33353 -5.05176,-3.3529 -7.07226,-4.48438 -1.98009,-1.13148 -3.87924,-2.22313 -4.16211,-2.38477 -0.36369,-0.24245 0.24345,-0.88791 2.02148,-2.14062 3.31362,-2.38419 9.33369,-8.36519 11.91993,-11.88086 12.56749,-17.053 14.50866,-39.19738 5.05273,-58.23047 -2.62665,-5.37452 -5.77917,-9.53698 -11.11328,-14.87109 -4.24305,-4.20264 -5.09221,-5.29377 -4.72852,-5.73828 0.56574,-0.68697 5.2132,-3.75874 7.83985,-5.25391 5.86196,-3.27826 13.74854,-5.14353 21.46679,-5.29297 z m 126.59375,0.0176 c 3.47944,0.0256 7.42205,0.32495 10.02344,0.83008 7.39502,1.37394 14.30449,4.60662 20.28516,9.375 l 1.69726,1.41406 -4.04101,3.83984 c -5.01084,4.72797 -8.52603,9.41622 -11.43555,15.03321 -2.70747,5.21288 -3.96018,8.68649 -5.21289,14.22265 -1.2123,5.57658 -1.334,16.44714 -0.16211,21.78125 3.11157,14.58799 10.46754,26.1864 21.98438,34.71289 1.73762,1.29312 2.38322,1.93919 2.01953,2.18164 -0.28287,0.16164 -2.14162,1.25329 -4.16211,2.38477 -15.47701,8.76896 -27.35702,23.11343 -32.9336,39.80273 -2.18213,6.66765 -3.27437,12.52713 -3.59765,19.67969 l -0.24219,6.10157 -3.63672,-3.79688 c -5.89985,-6.1019 -13.53718,-12.00333 -19.27539,-14.83203 -1.29312,-0.60615 -2.34375,-1.25242 -2.34375,-1.41406 0,-0.12123 1.33343,-1.29222 2.99024,-2.54493 3.83894,-2.94992 9.53606,-8.93058 12.20312,-12.76953 4.52591,-6.58682 7.92038,-15.03338 9.25391,-22.99414 1.01024,-6.02108 0.68718,-16.00141 -0.76758,-21.69922 -2.62665,-10.62781 -7.39377,-19.03439 -15.03125,-26.67187 -6.18272,-6.18272 -12.60868,-10.2233 -20.77149,-13.13281 -4.97042,-1.73763 -4.8088,-1.33283 -4.04101,-8.16211 2.50541,-22.95285 19.03301,-39.96656 41.82422,-43.07813 1.36383,-0.197 3.28538,-0.27906 5.37304,-0.26367 z M 86.347656,131.05469 c 3.377388,0.0417 8.270852,0.50423 10.574219,1.08008 3.960175,1.01024 9.415035,3.39282 12.607425,5.49414 3.15197,2.10131 8.32507,7.03175 10.46679,10.0625 5.29371,7.39502 7.84039,16.12307 7.35547,25.37695 -0.84861,17.49751 -12.68979,32.08662 -29.783201,36.69336 -4.687553,1.29312 -14.74934,1.37306 -19.396484,0.20117 -15.07291,-3.87935 -25.862969,-14.70773 -29.621094,-29.74023 -1.010248,-4.12182 -1.211284,-13.33576 -0.322265,-16.97266 2.020497,-8.56691 5.132411,-14.4272 10.708984,-20.125 6.667641,-6.86969 14.061637,-10.46577 24.689453,-11.96094 0.636457,-0.0909 1.594907,-0.12326 2.720703,-0.10937 z m 256.796874,0.0527 c 0.81041,-0.003 1.64324,0.0162 2.50195,0.0566 2.30337,0.12123 5.37398,0.4443 6.86914,0.76758 7.59707,1.6164 13.77998,4.97017 19.5586,10.66797 5.81903,5.6978 9.17347,11.88143 11.23437,20.65039 0.8082,3.39444 0.6859,12.44547 -0.20312,16.36523 -3.47526,15.19414 -14.50764,26.4279 -29.74219,30.34766 -2.38419,0.60615 -4.40444,0.76758 -9.49609,0.76758 -6.66764,-0.0404 -8.72731,-0.36245 -13.85938,-2.26172 -19.72005,-7.23338 -30.38914,-29.05452 -24.16601,-49.50195 2.38418,-7.83953 8.0412,-15.63909 14.83008,-20.48828 1.49516,-1.05066 2.8292,-1.9004 3.03124,-1.9004 0.16164,0 1.97951,-0.8075 4,-1.77734 5.16238,-2.54583 9.76855,-3.66905 15.44141,-3.69336 z m -128.43945,48.04492 c 3.84684,-0.0185 8.06449,0.34738 10.64062,1.0293 16.77013,4.40468 28.44792,17.98277 30.18555,35.07617 1.2123,11.92094 -2.99108,23.67858 -11.51758,32.20508 -4.93001,4.97042 -10.14297,8.00146 -17.33594,10.18359 -3.39443,1.05066 -4.12128,1.13282 -10.91015,1.13282 -6.78887,0 -7.51572,-0.0822 -10.91016,-1.13282 -7.07174,-2.14172 -12.52688,-5.37319 -17.57812,-10.46484 -14.95168,-14.91127 -15.31577,-39.52063 -0.8086,-55.36133 5.61699,-6.1019 13.77968,-10.62909 22.14453,-12.20508 1.6063,-0.30307 3.78175,-0.45176 6.08985,-0.46289 z m 127.73437,48.04102 c 4.30745,0.0322 10.21683,0.57138 13.67188,1.35937 9.45593,2.10132 17.78177,6.34388 24.85351,12.60743 9.37511,8.32445 15.39471,18.75086 18.14258,31.31836 0.84861,3.91976 0.88928,5.05091 0.92969,22.9121 v 18.79102 l -2.22266,1.13086 c -5.13206,2.54583 -18.18453,5.45493 -30.10547,6.74805 -15.0325,1.57598 -32.2055,1.57538 -47.48046,-0.041 -13.01201,-1.33353 -27.6418,-4.76728 -31.23829,-7.35351 l -1.17187,-0.8086 0.20312,-19.0332 c 0.16164,-17.53792 0.24198,-19.31516 1.00977,-22.75 4.04099,-17.57833 14.58778,-31.15582 30.34766,-39.07617 5.81903,-2.94993 12.1233,-4.76919 19.4375,-5.65821 0.92943,-0.11112 2.18723,-0.15721 3.62304,-0.14648 z m -255.5332,0.084 c 3.948652,0.0438 8.485963,0.35021 10.986328,0.83008 19.598822,3.75813 36.409542,18.38576 42.753902,37.2168 2.58624,7.75871 2.70751,8.72929 2.86914,29.5 l 0.20118,19.07422 -1.17188,0.80664 c -3.59648,2.54582 -18.26473,5.98092 -31.23633,7.31445 -24.932933,2.62665 -52.008805,0.9707 -70.83984,-4.24219 -4.364274,-1.21229 -6.586863,-2.06201 -8.082031,-3.07226 l -1.089844,-0.76758 v -16.64844 c 0,-20.44743 0.404331,-24.28641 3.273437,-32.44922 5.010834,-14.18389 15.355988,-25.69981 28.8125,-32.125 6.142312,-2.90951 10.949547,-4.32387 17.617188,-5.21289 1.378989,-0.18184 3.537059,-0.25089 5.90625,-0.22461 z m 128.5,48.0918 c 4.01653,0.0537 8.43955,0.4212 11.39453,1.02734 11.19356,2.26296 20.12356,7.07339 28.36719,15.35743 6.95051,6.9101 10.91005,13.2536 13.90039,22.22461 2.46501,7.3142 2.66797,9.73899 2.66797,29.98437 v 18.0625 l -1.0918,0.76758 c -4.16222,2.94992 -18.54782,6.10221 -35.68164,7.83984 -6.66764,0.64656 -31.72103,0.64656 -38.38867,0 -14.42635,-1.49517 -25.21691,-3.59648 -32.65234,-6.38476 -4.52592,-1.69722 -4.1211,0.32466 -4.1211,-20.36524 0,-20.12415 0.20236,-22.38818 2.62695,-29.7832 6.91011,-20.81112 25.0533,-35.80365 46.5918,-38.4707 1.71237,-0.21216 3.9768,-0.29197 6.38672,-0.25977 z"
       transform="matrix(24.746383,0,0,-24.746383,-384.47768,10059.835)"
       id="path4"
       inkscape:connector-curvature="0" />
  </g>
</svg>
