<?xml version="1.0" encoding="UTF-8" standalone="no"?>
<svg
   xmlns:dc="http://purl.org/dc/elements/1.1/"
   xmlns:cc="http://creativecommons.org/ns#"
   xmlns:rdf="http://www.w3.org/1999/02/22-rdf-syntax-ns#"
   xmlns:svg="http://www.w3.org/2000/svg"
   xmlns="http://www.w3.org/2000/svg"
   xmlns:sodipodi="http://sodipodi.sourceforge.net/DTD/sodipodi-0.dtd"
   xmlns:inkscape="http://www.inkscape.org/namespaces/inkscape"
   version="1.0"
   width="320"
   height="320"
   viewBox="0 0 240 240"
   preserveAspectRatio="xMidYMid meet"
   id="svg18"
   sodipodi:docname="easy.svg"
   inkscape:version="0.92.3 (2405546, 2018-03-11)">
  <defs
     id="defs22">
    <inkscape:path-effect
       effect="envelope"
       id="path-effect829"
       is_visible="true"
       yy="true"
       xx="true"
       bendpath1="M 2.0044217,101.37892 H 4236.7429"
       bendpath2="M 4236.7429,101.37892 V 4262.792"
       bendpath3="M 2.0044217,4262.792 H 4236.7429"
       bendpath4="M 2.0044217,101.37892 V 4262.792" />
  </defs>
  <sodipodi:namedview
     pagecolor="#ffffff"
     bordercolor="#666666"
     borderopacity="1"
     objecttolerance="10"
     gridtolerance="10"
     guidetolerance="10"
     inkscape:pageopacity="0"
     inkscape:pageshadow="2"
     inkscape:window-width="1920"
     inkscape:window-height="1056"
     id="namedview20"
     showgrid="false"
     fit-margin-top="0"
     fit-margin-left="0"
     fit-margin-right="0"
     fit-margin-bottom="0"
     inkscape:zoom="0.59036745"
     inkscape:cx="-168.79799"
     inkscape:cy="276.57838"
     inkscape:window-x="1920"
     inkscape:window-y="0"
     inkscape:window-maximized="1"
     inkscape:current-layer="svg18"
     units="px" />
  <metadata
     id="metadata2">
Created by potrace 1.13, written by Peter Selinger 2001-2015
<rdf:RDF>
  <cc:Work
     rdf:about="">
    <dc:format>image/svg+xml</dc:format>
    <dc:type
       rdf:resource="http://purl.org/dc/dcmitype/StillImage" />
    <dc:title></dc:title>
  </cc:Work>
</rdf:RDF>
</metadata>
  <g
     transform="matrix(0.05531635,0,0,-0.05531632,-8.1007468,250.74308)"
     id="g16"
     style="fill:#61dafb;fill-opacity:1;stroke:none">
    <path
       style="fill:#61dafb;fill-opacity:1;stroke-width:0.13333333"
       d="m 22.355469,6.5527344 c -6.447616,1.5245599 -7.119958,2.1109217 -10.236328,4.4843746 -2.2296923,1.69816 -3.7770164,4.01542 -4.5527348,6.5625 C 5.9015056,23.066355 5.0272205,26.06227 5.2285156,39.09375 l -0.1621094,75.88281 -0.068359,20 -0.3984375,323.33399 0.4042968,37.73047 c 0.03055,2.85357 1.4429378,5.63237 3.0214844,8.00976 1.5921337,2.39785 4.0734651,4.43648 6.2636711,5.94531 2.680227,1.5791 4.155353,2.11881 11.341797,2.73633 l 412.300781,-1.75586 h 16.13477 17.0664 c 0,0 21.4935,-0.4038 28.02539,-2.88281 3.4731,-1.31813 6.14195,-2.92198 7.63086,-5.46289 1.37184,-2.34114 1.99291,-4.98164 2.34375,-11.38672 0,0 2.1323,-462.933593 0.26563,-462.933593 -0.66666,0 -1.73281,-1.333073 -2.13282,-3.066406 -1.73333,-5.333333 -7.19934,-11.334375 -12.66601,-13.734375 -2.93333,-1.333334 -5.33398,-2.8001305 -5.33399,-3.4667972 0,-0.5333333 -231.19921,-1.0664063 -231.19921,-1.0664063 z M 256.59961,28.310547 c 176.80007,0 233.06641,1.599609 233.06641,1.599609 l -0.4004,38 V 104.31055 H 256.59961 23.931641 L 23.666016,30.310547 Z M 166.41406,48.408203 C 164.01719,48.321582 161.5,48.819922 159,50.044922 c -3.2,1.6 -8.40039,10.00013 -8.40039,13.466797 0,6.533333 8.93346,15.464843 15.4668,15.464843 4.53333,0 11.06588,-4 13.19921,-8 5.63334,-10.833332 -2.4651,-22.193001 -12.85156,-22.568359 z m -53.03906,0.0039 c -2.41113,5.86e-4 -4.93398,0.839454 -7.70898,2.564453 -4.40001,2.666667 -8.400395,8.800261 -8.400395,12.933594 0,4.133333 5.199995,11.067318 9.999995,13.333985 4.13334,2 5.33295,1.999869 9.59961,0.533203 13.86668,-5.066667 14.93334,-20.400521 2,-27.867188 -1.80833,-0.991666 -3.6149,-1.498502 -5.49023,-1.498047 z m -54.142578,0.06445 c -2.100001,-0.03333 -4.098957,0.767188 -6.765625,2.367188 -4.266668,2.666667 -8.667058,9.467318 -8.400391,13.333984 0.266667,6.133333 8.93255,14.532683 15.199219,14.666016 4.266668,0.133333 11.199609,-4.800521 13.599609,-9.867188 3.200002,-6.666666 0.667711,-13.998567 -6.265625,-17.865234 -3.066667,-1.733333 -5.267186,-2.601432 -7.367187,-2.634766 z M 24.066406,124.31055 H 256.59961 489.26562 v 181.73242 l -1.5996,183.33398 -231.06641,1.59961 -232.933594,-0.0332 0.40039,-185.83398 z m 335.732424,60 c -4.13334,0 -6.79882,2.26758 -26.79883,22.26757 -19.60001,19.33334 -22.40039,22.66511 -22.40039,26.39844 0,5.86667 4.26562,10 10.26562,10 4.40001,0 6.4,-1.46497 22,-16.93164 l 17.06836,-16.93359 16.39844,16.26562 c 13.60001,13.46667 17.19987,16.26758 20.5332,16.26758 4.26667,0 9.06706,-3.60052 10.40039,-7.86719 1.33334,-4.53333 -2.40025,-9.46718 -22.93359,-29.86718 -17.86667,-17.6 -20.39987,-19.59961 -24.5332,-19.59961 z m -219.04883,0.25 c -6.11667,0.0833 -12.34973,7.21771 -26.81641,21.48437 -20.000003,19.86667 -21.999996,22.26654 -21.999996,26.5332 0,8.8 8.665236,13.33282 15.865236,8.13282 1.86667,-1.2 9.73437,-8.66602 17.73437,-16.66602 14.00001,-13.86666 16.26537,-15.60013 17.33203,-13.4668 0.26667,0.66667 7.33386,7.86667 15.86719,16 12.66667,12.4 16.13346,15.06641 19.4668,15.06641 5.33333,0 9.73437,-4.80078 9.73437,-10.80078 0,-4 -2.00168,-6.53346 -21.06836,-25.4668 -14,-13.93333 -19.99856,-20.89974 -26.11523,-20.8164 z"
       transform="matrix(7.4999973,0,0,-7.5000003,410.50492,4292.331)"
       id="path4"
       inkscape:connector-curvature="0" />
  </g>
</svg>
