<?xml version="1.0" encoding="UTF-8" standalone="no"?>
<svg
   xmlns:dc="http://purl.org/dc/elements/1.1/"
   xmlns:cc="http://creativecommons.org/ns#"
   xmlns:rdf="http://www.w3.org/1999/02/22-rdf-syntax-ns#"
   xmlns:svg="http://www.w3.org/2000/svg"
   xmlns="http://www.w3.org/2000/svg"
   xmlns:sodipodi="http://sodipodi.sourceforge.net/DTD/sodipodi-0.dtd"
   xmlns:inkscape="http://www.inkscape.org/namespaces/inkscape"
   version="1.0"
   width="120pt"
   height="100pt"
   viewBox="0 0 120 100"
   preserveAspectRatio="xMidYMid meet"
   id="svg38"
   sodipodi:docname="logo-mob.svg"
   inkscape:version="0.92.3 (2405546, 2018-03-11)">
  <defs
     id="defs42" />
  <sodipodi:namedview
     pagecolor="#ffffff"
     bordercolor="#666666"
     borderopacity="1"
     objecttolerance="10"
     gridtolerance="10"
     guidetolerance="10"
     inkscape:pageopacity="0"
     inkscape:pageshadow="2"
     inkscape:window-width="1920"
     inkscape:window-height="1056"
     id="namedview40"
     showgrid="false"
     inkscape:zoom="2.325"
     inkscape:cx="50.563165"
     inkscape:cy="51.74263"
     inkscape:window-x="1920"
     inkscape:window-y="0"
     inkscape:window-maximized="1"
     inkscape:current-layer="svg38"
     fit-margin-top="0"
     fit-margin-left="0"
     fit-margin-right="0"
     fit-margin-bottom="0" />
  <metadata
     id="metadata2">
Created by potrace 1.13, written by Peter Selinger 2001-2015
<rdf:RDF>
  <cc:Work
     rdf:about="">
    <dc:format>image/svg+xml</dc:format>
    <dc:type
       rdf:resource="http://purl.org/dc/dcmitype/StillImage" />
    <dc:title></dc:title>
  </cc:Work>
</rdf:RDF>
</metadata>
  <g
     transform="matrix(0.1,0,0,-0.1,1.2612904,113.67742)"
     id="g36"
     style="fill:#000000;stroke:none">
    <path
       d="m 42,938 c 3,-68 5,-73 28,-78 l 25,-6 1,-295 c 1,-161 2,-300 2,-306 2,-9 27,-13 91,-13 81,0 90,2 96,20 8,24 18,25 50,4 13,-9 51,-18 84,-21 112,-10 205,35 258,124 25,44 28,57 28,143 0,85 -3,99 -27,135 -34,53 -65,81 -110,100 -47,19 -158,20 -204,0 -20,-8 -40,-12 -45,-9 -5,3 -9,57 -9,120 0,154 0,154 -155,154 H 39 Z M 487,608 c 31,-35 43,-63 43,-105 0,-116 -147,-168 -194,-68 -29,61 -13,145 35,179 35,24 91,21 116,-6 z"
       id="path6"
       inkscape:connector-curvature="0" />
    <path
       d="m 753.31654,943 c -10,-9 -9,-143 1,-144 4,-1 17,-3 28,-4 44,-5 44,-6 44,-263 0,-208 2,-251 16,-270 14,-21 22,-22 155,-22 h 138.99996 v 80 80 h -50 -49 l -3,256 c -4,314 7,294 -161.99996,294 -62,0 -116,-3 -119,-7 z"
       id="path12"
       style="fill:#61dafb;fill-opacity:1"
       inkscape:connector-curvature="0" />
  </g>
</svg>
