<?xml version="1.0" encoding="UTF-8" standalone="no"?>
<svg
   xmlns:dc="http://purl.org/dc/elements/1.1/"
   xmlns:cc="http://creativecommons.org/ns#"
   xmlns:rdf="http://www.w3.org/1999/02/22-rdf-syntax-ns#"
   xmlns:svg="http://www.w3.org/2000/svg"
   xmlns="http://www.w3.org/2000/svg"
   xmlns:sodipodi="http://sodipodi.sourceforge.net/DTD/sodipodi-0.dtd"
   xmlns:inkscape="http://www.inkscape.org/namespaces/inkscape"
   version="1.0"
   width="520.000000pt"
   height="118.000000pt"
   viewBox="0 0 520.000000 118.000000"
   preserveAspectRatio="xMidYMid meet"
   id="svg38"
   sodipodi:docname="logo-white-small.svg"
   inkscape:version="0.92.3 (2405546, 2018-03-11)">
  <defs
     id="defs42" />
  <sodipodi:namedview
     pagecolor="#ffffff"
     bordercolor="#666666"
     borderopacity="1"
     objecttolerance="10"
     gridtolerance="10"
     guidetolerance="10"
     inkscape:pageopacity="0"
     inkscape:pageshadow="2"
     inkscape:window-width="1920"
     inkscape:window-height="983"
     id="namedview40"
     showgrid="false"
     inkscape:zoom="1.1625"
     inkscape:cx="378.73098"
     inkscape:cy="192.68518"
     inkscape:window-x="0"
     inkscape:window-y="25"
     inkscape:window-maximized="1"
     inkscape:current-layer="svg38" />
  <metadata
     id="metadata2">
Created by potrace 1.13, written by Peter Selinger 2001-2015
<rdf:RDF>
  <cc:Work
     rdf:about="">
    <dc:format>image/svg+xml</dc:format>
    <dc:type
       rdf:resource="http://purl.org/dc/dcmitype/StillImage" />
  </cc:Work>
</rdf:RDF>
</metadata>
  <g
     transform="translate(0.000000,118.000000) scale(0.100000,-0.100000)"
     fill="#000000"
     stroke="none"
     id="g36">
    <path
       d="M968 1084 c-63 -19 -127 -84 -157 -157 -17 -42 -21 -61 -13 -69 16 -16 42 8 42 37 0 33 59 116 100 140 28 16 51 20 115 19 181 -3 275 -85 275 -239 0 -49 3 -65 14 -65 18 0 30 65 20 116 -10 58 -38 106 -84 148 -45 41 -68 52 -150 72 -69 17 -103 16 -162 -2z"
       id="path4" />
    <path
       d="M42 938 c3 -68 5 -73 28 -78 l25 -6 1 -295 c1 -161 2 -300 2 -306 2 -9 27 -13 91 -13 81 0 90 2 96 20 8 24 18 25 50 4 13 -9 51 -18 84 -21 112 -10 205 35 258 124 25 44 28 57 28 143 0 85 -3 99 -27 135 -34 53 -65 81 -110 100 -47 19 -158 20 -204 0 -20 -8 -40 -12 -45 -9 -5 3 -9 57 -9 120 0 154 0 154 -155 154 l-116 0 3 -72z m445 -330 c31 -35 43 -63 43 -105 0 -116 -147 -168 -194 -68 -29 61 -13 145 35 179 35 24 91 21 116 -6z"
       id="path6" />
    <path
       d="M1924 948 c-4 -6 -8 -39 -8 -72 0 -57 2 -61 25 -65 13 -1 27 -8 31 -15 4 -6 8 -127 8 -268 l0 -257 27 -21 c23 -18 38 -20 102 -18 l76 3 5 95 c6 121 20 124 75 18 63 -119 63 -119 169 -116 l91 3 3 67 c3 64 2 67 -24 80 -15 7 -41 35 -56 62 l-29 49 23 45 c13 25 38 54 56 65 32 19 33 21 30 81 l-3 61 -96 3 c-111 3 -104 8 -164 -107 -23 -44 -47 -77 -57 -79 -17 -3 -18 10 -18 168 0 96 -4 180 -10 190 -6 11 -27 24 -48 30 -52 14 -199 13 -208 -2z"
       id="path8" />
    <path
       d="M3974 948 c-12 -19 10 -24 110 -26 102 -3 106 -2 106 18 0 20 -4 21 -106 18 -58 -1 -108 -6 -110 -10z"
       id="path10"
       style="fill:#61dafb;fill-opacity:1" />
    <path
       d="M3527 943 c-10 -9 -9 -143 1 -144 4 -1 17 -3 28 -4 44 -5 44 -6 44 -263 0 -208 2 -251 16 -270 14 -21 22 -22 155 -22 l139 0 0 80 0 80 -50 0 -49 0 -3 256 c-4 314 7 294 -162 294 -62 0 -116 -3 -119 -7z"
       id="path12"
       style="fill:#61dafb;fill-opacity:1" />
    <path
       d="M3163 892 c-7 -4 -13 -36 -15 -72 -3 -60 -5 -65 -27 -66 -32 -2 -39 -17 -34 -77 6 -71 9 -77 38 -77 l25 0 0 -117 c0 -132 10 -159 72 -205 48 -36 91 -48 174 -48 l74 0 0 84 0 83 -40 6 c-64 8 -70 18 -70 113 l0 83 48 3 47 3 0 75 0 75 -47 3 -48 3 0 40 c0 53 -13 74 -51 88 -36 13 -128 15 -146 3z"
       id="path14" />
    <path
       d="M3981 874 c0 -11 3 -14 6 -6 3 7 2 16 -1 19 -3 4 -6 -2 -5 -13z"
       id="path16"
       style="fill:#61dafb;fill-opacity:1" />
    <path
       d="M4037 884 c-16 -16 9 -24 74 -24 52 0 70 3 67 13 -5 13 -129 23 -141 11z"
       id="path18"
       style="fill:#61dafb;fill-opacity:1" />
    <path
       d="M4868 823 l-3 -68 -32 -3 -33 -3 0 -69 c0 -67 0 -69 28 -72 l27 -3 5 -120 c4 -103 8 -125 29 -158 34 -55 105 -88 203 -94 l78 -6 0 87 0 86 -33 0 c-58 0 -68 15 -69 106 -1 44 2 85 6 92 4 7 27 12 52 12 l44 0 0 70 0 70 -50 0 -49 0 -3 68 -3 67 -97 3 -97 3 -3 -68z"
       id="path20"
       style="fill:#61dafb;fill-opacity:1" />
    <path
       d="M772 813 c-17 -32 -21 -113 -6 -113 30 0 42 -27 32 -72 -38 -176 -43 -223 -24 -262 19 -41 74 -86 103 -86 11 0 57 -11 104 -25 99 -30 135 -27 189 16 42 34 46 45 92 244 12 54 17 60 41 63 30 4 40 20 51 88 7 41 7 42 -26 47 -18 3 -66 13 -106 22 -102 23 -115 19 -124 -30 -3 -22 -11 -67 -17 -100 -6 -33 -14 -76 -17 -95 -9 -58 -24 -80 -55 -80 -38 0 -49 24 -38 80 23 111 30 148 35 185 4 22 11 46 17 53 20 26 -26 42 -168 59 -27 3 -55 10 -62 15 -8 6 -15 3 -21 -9z"
       id="path22"
       style="fill:#61dafb;fill-opacity:1" />
    <path
       d="M3980 810 c0 -5 5 -10 11 -10 5 0 7 5 4 10 -3 6 -8 10 -11 10 -2 0 -4 -4 -4 -10z"
       id="path24"
       style="fill:#61dafb;fill-opacity:1" />
    <path
       d="M4030 810 c0 -6 32 -10 75 -10 43 0 75 4 75 10 0 6 -32 10 -75 10 -43 0 -75 -4 -75 -10z"
       id="path26"
       style="fill:#61dafb;fill-opacity:1" />
    <path
       d="M1583 760 c-58 -12 -97 -34 -143 -80 -54 -54 -73 -101 -73 -185 -1 -116 53 -199 162 -249 67 -31 227 -29 293 3 25 12 54 31 63 41 15 17 14 22 -16 82 -17 34 -33 65 -35 67 -1 2 -23 -6 -47 -18 -52 -25 -142 -28 -174 -6 -25 18 -44 74 -36 107 10 41 43 68 84 68 33 0 41 -5 54 -30 16 -31 16 -31 93 -28 l77 3 3 68 c3 67 2 69 -33 102 -20 19 -52 39 -73 45 -55 15 -152 20 -199 10z"
       id="path28" />
    <path
       d="M2751 760 c-234 -48 -274 -387 -60 -505 50 -28 61 -30 154 -29 101 1 155 16 209 57 19 14 19 16 -15 81 -19 36 -39 66 -45 66 -6 0 -28 -7 -49 -16 -52 -21 -131 -21 -156 2 -43 39 -28 44 130 44 167 0 162 -3 154 76 -9 99 -67 183 -144 212 -40 16 -130 21 -178 12z m104 -171 c9 -29 -6 -41 -46 -37 -42 4 -52 38 -18 62 26 18 54 7 64 -25z"
       id="path30" />
    <path
       d="M4451 751 c-105 -27 -160 -143 -104 -219 17 -24 84 -64 138 -82 51 -18 95 -41 95 -49 0 -13 -33 -31 -55 -31 -9 0 -27 11 -41 25 -22 22 -33 25 -99 25 l-75 0 0 -51 c0 -46 4 -55 34 -84 43 -40 109 -59 208 -58 67 0 88 5 135 29 63 33 93 76 93 134 0 73 -43 114 -158 149 -82 25 -97 34 -89 55 8 20 53 21 61 1 5 -13 21 -15 88 -13 l83 3 -3 45 c-7 91 -52 122 -187 126 -49 2 -105 -1 -124 -5z"
       id="path32"
       style="fill:#61dafb;fill-opacity:1" />
    <path
       d="M3960 681 c0 -69 0 -70 28 -73 l27 -3 5 -166 c4 -120 9 -171 19 -183 10 -12 32 -16 97 -16 l84 0 0 235 c0 292 9 275 -150 275 l-110 0 0 -69z"
       id="path34"
       style="fill:#61dafb;fill-opacity:1" />
  </g>
</svg>
