<?xml version="1.0" encoding="UTF-8" standalone="no"?>
<svg
   xmlns:dc="http://purl.org/dc/elements/1.1/"
   xmlns:cc="http://creativecommons.org/ns#"
   xmlns:rdf="http://www.w3.org/1999/02/22-rdf-syntax-ns#"
   xmlns:svg="http://www.w3.org/2000/svg"
   xmlns="http://www.w3.org/2000/svg"
   xmlns:sodipodi="http://sodipodi.sourceforge.net/DTD/sodipodi-0.dtd"
   xmlns:inkscape="http://www.inkscape.org/namespaces/inkscape"
   version="1.1"
   viewBox="0 0 28 30"
   enable-background="new 0 0 24 24"
   id="svg10"
   sodipodi:docname="menu.svg"
   width="28"
   height="30"
   inkscape:version="0.92.3 (2405546, 2018-03-11)">
  <metadata
     id="metadata16">
    <rdf:RDF>
      <cc:Work
         rdf:about="">
        <dc:format>image/svg+xml</dc:format>
        <dc:type
           rdf:resource="http://purl.org/dc/dcmitype/StillImage" />
        <dc:title></dc:title>
      </cc:Work>
    </rdf:RDF>
  </metadata>
  <defs
     id="defs14" />
  <sodipodi:namedview
     pagecolor="#ffffff"
     bordercolor="#666666"
     borderopacity="1"
     objecttolerance="10"
     gridtolerance="10"
     guidetolerance="10"
     inkscape:pageopacity="0"
     inkscape:pageshadow="2"
     inkscape:window-width="1920"
     inkscape:window-height="983"
     id="namedview12"
     showgrid="false"
     inkscape:zoom="13.906433"
     inkscape:cx="20.565364"
     inkscape:cy="14.084984"
     inkscape:window-x="0"
     inkscape:window-y="25"
     inkscape:window-maximized="1"
     inkscape:current-layer="svg10" />
  <g
     id="g8"
     transform="translate(2.1355932,2.9491525)">
    <path
       d="M 1,2 C 0.4,2 0,2.4 0,3 v 2 c 0,0.6 0.4,1 1,1 h 22 c 0.6,0 1,-0.4 1,-1 V 3 C 24,2.4 23.6,2 23,2 Z m 0,8 c -0.6,0 -1,0.4 -1,1 v 2 c 0,0.6 0.4,1 1,1 h 22 c 0.6,0 1,-0.4 1,-1 v -2 c 0,-0.6 -0.4,-1 -1,-1 z m 0,8 c -0.6,0 -1,0.4 -1,1 v 2 c 0,0.6 0.4,1 1,1 h 22 c 0.6,0 1,-0.4 1,-1 v -2 c 0,-0.6 -0.4,-1 -1,-1 z"
       id="path2"
       style="fill:#ffffff;fill-opacity:1"
       inkscape:connector-curvature="0" />
  </g>
</svg>
