<?xml version="1.0" encoding="UTF-8" standalone="no"?>
<svg
   xmlns:dc="http://purl.org/dc/elements/1.1/"
   xmlns:cc="http://creativecommons.org/ns#"
   xmlns:rdf="http://www.w3.org/1999/02/22-rdf-syntax-ns#"
   xmlns:svg="http://www.w3.org/2000/svg"
   xmlns="http://www.w3.org/2000/svg"
   xmlns:sodipodi="http://sodipodi.sourceforge.net/DTD/sodipodi-0.dtd"
   xmlns:inkscape="http://www.inkscape.org/namespaces/inkscape"
   version="1.0"
   width="320"
   height="320"
   viewBox="0 0 239.99999 240"
   preserveAspectRatio="xMidYMid meet"
   id="svg12"
   sodipodi:docname="privacy.svg"
   inkscape:version="0.92.3 (2405546, 2018-03-11)">
  <defs
     id="defs16" />
  <sodipodi:namedview
     pagecolor="#ffffff"
     bordercolor="#666666"
     borderopacity="1"
     objecttolerance="10"
     gridtolerance="10"
     guidetolerance="10"
     inkscape:pageopacity="0"
     inkscape:pageshadow="2"
     inkscape:window-width="1920"
     inkscape:window-height="1056"
     id="namedview14"
     showgrid="false"
     inkscape:zoom="0.73622294"
     inkscape:cx="-438.17354"
     inkscape:cy="259.91038"
     inkscape:window-x="1920"
     inkscape:window-y="0"
     inkscape:window-maximized="1"
     inkscape:current-layer="svg12"
     units="px"
     fit-margin-top="0"
     fit-margin-left="0"
     fit-margin-right="0"
     fit-margin-bottom="0" />
  <metadata
     id="metadata2">
Created by potrace 1.13, written by Peter Selinger 2001-2015
<rdf:RDF>
  <cc:Work
     rdf:about="">
    <dc:format>image/svg+xml</dc:format>
    <dc:type
       rdf:resource="http://purl.org/dc/dcmitype/StillImage" />
    <dc:title></dc:title>
  </cc:Work>
</rdf:RDF>
</metadata>
  <g
     transform="matrix(0.0725,0,0,-0.0725,13.630189,258.81287)"
     id="g10"
     style="fill:#61dafb;fill-opacity:1;stroke:none">
    <path
       style="fill:#61dafb;fill-opacity:1;stroke-width:0.13333334"
       d="m 202,0 c -7.86667,0 -14,0.53255207 -14,1.1992188 0,0.8 -2.80091,1.6014322 -6.26758,2.1347656 C 148.79909,7.4673178 116.66758,27.333984 94.267578,57.333984 80.27071,79.665878 79.831732,81.516398 73.599609,110.13281 c 0.666667,0.4 0.800912,1.33334 0.267579,2 -0.400001,0.8 -1.19961,7.73295 -1.59961,15.59961 L 71.333984,142 l -6.40039,0.40039 c -6.208114,0.36792 -6.907121,0.22848 -10.203125,1.35156 -2.53342,0.86323 -4.150932,2.49488 -5.28711,4.32422 C 47.921346,150.52675 48,153.50391 48,153.50391 c 0.194679,53.07776 0.400391,225.02929 0.400391,225.02929 0.933333,7.46667 1.363915,12.25148 6.24414,17.00586 3.333899,2.77401 3.686507,2.96078 9.449219,4.39453 L 88.800781,400 h 16.931639 174.9336 48.30859 c 11.08311,0 14.55533,-0.84177 17.35742,-1.82031 2.91413,-1.01768 4.62373,-2.33355 7.93359,-5.64453 1.86817,-2.09178 2.55156,-3.12574 3.06641,-8.00196 V 270.66602 c 0,-62.26667 -0.53307,-113.33295 -1.06641,-113.59961 -0.66666,-0.26667 -1.99973,-2.1323 -3.0664,-4.26563 -2.53333,-5.46667 -8.13216,-9.2 -14.79883,-10 L 332.66602,142 331.73242,127.33398 C 330.66576,109.20065 329.19883,100.79909 324.79883,87.732422 315.73216,60.799088 295.06537,35.066927 271.33203,20.933594 264.3987,16.80026 248.26706,9.3339844 246.40039,9.3339844 c -1.06667,0 -2.40117,-0.5330729 -3.20117,-1.0664063 C 241.73255,6.9342448 231.33372,4.5339844 222.40039,3.3339844 218.80039,2.9339844 216,1.9992188 216,1.1992188 216,0.53255207 209.86667,0 202,0 Z m -0.44922,21.517578 c 8.48333,-0.01667 16.98307,0.416537 20.31641,1.283203 2.93333,0.8 7.86549,1.998828 10.79883,2.798828 34.8,9.066667 65.8664,39.999739 75.0664,75.066411 3.6,13.73333 4.26758,19.3345 4.26758,39.20117 v 21.33203 l 11.73242,0.40039 L 335.33398,162 335.73242,270.93359 336,380 H 202 68 L 68.267578,270.93359 68.666016,162 80.400391,161.59961 92,161.19922 v -20.5332 c 0,-21.6 0.932943,-28.8 5.599609,-44.000004 5.333331,-17.066667 14.534111,-31.466927 28.800781,-44.933594 16.53333,-15.600001 26.93359,-21.065495 54.93359,-28.798828 3.26667,-0.933334 11.73347,-1.399349 20.2168,-1.416016 z m 1.08008,49.34961 c -5.0293,-0.101172 -10.04844,0.473828 -14.89844,1.798828 -17.73333,4.933333 -32.13333,16.666536 -40,32.533204 -4.26666,8.8 -4.26549,8.93372 -4.79883,32.40039 l -0.5332,23.73437 h 60.13281 60.13282 v -15.60156 c 0,-19.46667 -1.86693,-30.79817 -6.9336,-41.46484 -9.31667,-19.825002 -31.30794,-32.961981 -53.10156,-33.400392 z m -0.98047,20.033203 c 4.51667,-0.06667 9.01641,0.367187 11.81641,1.367187 12.66666,4.266667 23.73346,15.465622 27.46679,28.265622 2.13334,6.93334 2.26615,18.39987 0.13282,20.53321 -2.26667,2.26666 -75.86615,2.26666 -78.13282,0 -4.13333,-4.13334 -0.26679,-23.59974 6.53321,-33.06641 4.4,-6 13.46562,-13.066797 20.26562,-15.466797 2.86667,-1 7.4013,-1.566146 11.91797,-1.632812 z m -3.20898,148.794919 c -1.09825,0.0457 -2.225,0.1875 -3.375,0.4375 -10.66667,2.13334 -15.86589,9.73477 -15.19922,22.13477 0.13333,1.6 2.26692,5.73255 4.93359,9.19922 l 4.79883,6.26562 L 188,285.86719 c -4.66667,24.26666 -6.26732,32.93242 -7.33398,39.73242 l -0.79883,5.06641 h 18.93359 18.93164 l -0.79883,-5.73243 c -0.4,-3.06666 -1.33281,-9.06731 -2.13281,-13.33398 -7.06667,-37.86667 -6.9332,-34.93255 -2.5332,-39.19922 12.75,-12.125 2.64746,-33.39014 -13.82617,-32.70508 z"
       transform="matrix(7.4999998,0,0,-7.4999998,0,3400)"
       id="path4"
       inkscape:connector-curvature="0" />
  </g>
</svg>
