<?xml version="1.0" encoding="UTF-8" standalone="no"?>
<svg
   xmlns:dc="http://purl.org/dc/elements/1.1/"
   xmlns:cc="http://creativecommons.org/ns#"
   xmlns:rdf="http://www.w3.org/1999/02/22-rdf-syntax-ns#"
   xmlns:svg="http://www.w3.org/2000/svg"
   xmlns="http://www.w3.org/2000/svg"
   xmlns:sodipodi="http://sodipodi.sourceforge.net/DTD/sodipodi-0.dtd"
   xmlns:inkscape="http://www.inkscape.org/namespaces/inkscape"
   version="1.0"
   width="320"
   height="320"
   viewBox="0 0 240 240"
   preserveAspectRatio="xMidYMid meet"
   id="svg8"
   sodipodi:docname="social.svg"
   inkscape:version="0.92.3 (2405546, 2018-03-11)">
  <defs
     id="defs12" />
  <sodipodi:namedview
     pagecolor="#ffffff"
     bordercolor="#666666"
     borderopacity="1"
     objecttolerance="10"
     gridtolerance="10"
     guidetolerance="10"
     inkscape:pageopacity="0"
     inkscape:pageshadow="2"
     inkscape:window-width="1920"
     inkscape:window-height="1056"
     id="namedview10"
     showgrid="false"
     inkscape:zoom="0.86915208"
     inkscape:cx="-114.70558"
     inkscape:cy="24.342136"
     inkscape:window-x="1920"
     inkscape:window-y="0"
     inkscape:window-maximized="1"
     inkscape:current-layer="svg8"
     units="px"
     fit-margin-top="0"
     fit-margin-left="0"
     fit-margin-right="0"
     fit-margin-bottom="0" />
  <metadata
     id="metadata2">
Created by potrace 1.13, written by Peter Selinger 2001-2015
<rdf:RDF>
  <cc:Work
     rdf:about="">
    <dc:format>image/svg+xml</dc:format>
    <dc:type
       rdf:resource="http://purl.org/dc/dcmitype/StillImage" />
    <dc:title></dc:title>
  </cc:Work>
</rdf:RDF>
</metadata>
  <g
     transform="matrix(0.07108728,0,0,-0.07108728,-18.182045,237.50454)"
     id="g6"
     style="fill:#61dafb;fill-opacity:1;stroke:none">
    <path
       d="m 2380,2871 c 0,-5 -19,-12 -42,-16 -222,-35 -439,-221 -516,-441 -12,-32 -24,-77 -28,-99 -4,-22 -10,-50 -15,-61 l -8,-22 -83,23 c -273,74 -445,178 -659,396 -119,121 -141,139 -168,139 -40,0 -110,-47 -148,-98 -80.59539,-96.7922 -112.7522,-191.5848 -107,-342 6,0 14,-26 17,-62 4,-35 11,-83 16,-108 l 9,-45 c -37.22206,-81.9886 -45.86546,-168.8586 -38,-265 13.47182,-56.0891 20.29226,-76.618 27.30341,-99 9.79856,-29.3654 11.50542,-35.7753 16.76408,-50.7752 C 658.92136,1708.9889 672,1684 687,1653 l 27,-55 c 28.66773,-56.0363 46.75703,-96.3077 77,-138 13,8 15,5 11,-16 -7,-40 27,-130 88,-234 19,-31 74,-93 130,-146 49,-46 50,-41 -20,-64 -14,-5 -67,-14 -118,-21 -75,-10 -109,-10 -176,1 -71,11 -86,11 -111,-3 -17,-8 47.40678,33.9492 -108.59322,-122.05085 C 499.19909,790.07416 532.69492,752.0339 532.69492,752.0339 550.84746,741.35593 573,713 580,705 c 7,-8 24,-21 39,-28 81,-43 111,-62 111,-71 72.48268,-36.90808 108.59298,-44.8618 172,-66 15,0 30,-5 33,-10 3,-6 17,-10 30,-10 13,0 27,-4 30,-10 3,-5 16,-10 29,-10 13,0 38,-7 56,-16 62.3619,-18.84688 98.8417,-24.19742 206,-44 h 126 c 196.0376,-3.52172 224.7852,-4.53285 428,28 102,25 177,42 185,42 339.0596,134.95455 364.0081,148.45064 604,365 311,294 496,684 529,1115 l 9,115 80,80 c 76,77 163,192 163,215 0,6 7,13 15,16 17,7 22,84 5,84 -5,0 -12,11 -16,25 -3,14 -19,36 -35,49 -27,23 -29,30 -29,92 0,57 -4,72 -26,101 -28,37 -80,63 -126,63 -16,0 -59,-15 -96,-34 -158,-80 -189,-87 -234,-53 -70,53 -177,98 -265,112 -24,4 -43,11 -43,16 0,5 -40,9 -90,9 -49,0 -90,-4 -90,-9 z m 198,-162 c 46,-10 65,-17 120,-41 33,-15 110,-65 136,-90 30,-27 82,-23 176,15 14,5 35,14 48,18 46,18 78,34 105,52 81,55 11,-108 -88,-203 -35,-33 -60,-61 -57,-61 31,-5 150,25 210,54 16,7 26,7 33,0 14,-14 -64,-107 -170,-204 -45,-40 -79,-79 -77,-86 6,-16 -11,-230 -25,-303 -57,-311 -210,-611 -420,-820 -172,-172 -296,-259 -474,-335 -22,-9 -49,-21 -60,-26 -56,-23 -154,-49 -300,-79 -81,-17 -433,-17 -505,-1 -58,14 -109,26 -175,43 -38,10 -49,14 -110,38 -14,6 -35,14 -47,19 -21,8 -118,55 -179,88 -25,12 -56,42 -48,44 2,0 68,2 145,4 78,2 161,9 185,15 24,6 62,16 84,22 101,26 251,96 328,152 l 29,21 -44,7 c -68,10 -111,23 -174,54 -77,37 -200,159 -237,235 -41,85 -41,85 59,80 94,-3 130,10 78,29 -91,34 -205,117 -229,165 -8,17 -24,40 -36,51 -42,37 -89,165 -89,242 0,43 3,52 18,52 10,0 22,-4 27,-8 14,-12 73,-29 125,-37 l 45,-8 -65,69 c -73,78 -111,146 -139,250 -14,53 -14,197 0,243 17,55 51,123 65,128 7,3 60,-42 117,-99 176,-175 423,-322 637,-380 87,-23 120,-30 200,-44 47,-7 100,-14 119,-14 28,0 32,3 26,18 -15,37 -17,123 -5,189 47,256 270,447 528,452 35,1 84,-4 110,-10 z"
       id="path4"
       inkscape:connector-curvature="0"
       sodipodi:nodetypes="sccsccccscccsccccccccccccccccsccccscscccccccccscsccscscccssscccccccccsccccccccccccccsccccccccccssccccccccccscccc"
       style="fill:#61dafb;fill-opacity:1" />
  </g>
</svg>
