<?xml version="1.0" encoding="UTF-8" standalone="no"?>
<svg
   xmlns:dc="http://purl.org/dc/elements/1.1/"
   xmlns:cc="http://creativecommons.org/ns#"
   xmlns:rdf="http://www.w3.org/1999/02/22-rdf-syntax-ns#"
   xmlns:svg="http://www.w3.org/2000/svg"
   xmlns="http://www.w3.org/2000/svg"
   xmlns:sodipodi="http://sodipodi.sourceforge.net/DTD/sodipodi-0.dtd"
   xmlns:inkscape="http://www.inkscape.org/namespaces/inkscape"
   version="1.0"
   width="320"
   height="320"
   viewBox="0 0 239.99999 239.99999"
   preserveAspectRatio="xMidYMid meet"
   id="svg10"
   sodipodi:docname="timeline.svg"
   inkscape:version="0.92.3 (2405546, 2018-03-11)">
  <defs
     id="defs14" />
  <sodipodi:namedview
     pagecolor="#ffffff"
     bordercolor="#666666"
     borderopacity="1"
     objecttolerance="10"
     gridtolerance="10"
     guidetolerance="10"
     inkscape:pageopacity="0"
     inkscape:pageshadow="2"
     inkscape:window-width="1920"
     inkscape:window-height="1056"
     id="namedview12"
     showgrid="false"
     inkscape:zoom="1.4222489"
     inkscape:cx="133.96463"
     inkscape:cy="232.6923"
     inkscape:window-x="1920"
     inkscape:window-y="0"
     inkscape:window-maximized="1"
     inkscape:current-layer="svg10"
     units="px" />
  <metadata
     id="metadata2">
Created by potrace 1.13, written by Peter Selinger 2001-2015
<rdf:RDF>
  <cc:Work
     rdf:about="">
    <dc:format>image/svg+xml</dc:format>
    <dc:type
       rdf:resource="http://purl.org/dc/dcmitype/StillImage" />
    <dc:title></dc:title>
  </cc:Work>
</rdf:RDF>
</metadata>
  <g
     transform="matrix(0.06948232,0,0,-0.06948232,0.57434986,239.9814)"
     id="g8"
     style="fill:#000000;stroke:none">
    <path
       style="fill:#61dafb;fill-opacity:1;stroke-width:1"
       d="m 1768.4957,3230.2594 c -102.898,-0.6438 -224.1943,-6.7266 -241.0693,-16.2891 -14,-7 -40.0039,-14.0039 -59.0039,-14.0039 -19,0 -47.9952,-3.9941 -64.9951,-8.9941 -17,-5 -50.9961,-15.0059 -75.9962,-21.0059 -24.9999,-7 -53.0067,-16.0059 -62.0067,-21.0059 -10.0001,-5 -25.003,-8.9941 -33.003,-8.9941 -8,0 -22.9883,-3.9941 -32.9883,-8.9941 -9,-5 -35.0117,-17.001 -57.0117,-26.001 -215.99996,-91 -430.98925,-252.0098 -568.98925,-425.0098 -140.65616,-165.5132 -255.14405,-366.8567 -297.0117,-579.9902 -58.43246,-254.704 -72.34929,-396.867 -6.9873,-736.0107 20.56387,-127.0259 63.58241,-236.836 112.39745,-331.626 59.90208,-108.97462 91.15204,-160.87812 180.60055,-269.37012 21,-27 59.99708,-70.99803 86.99708,-97.99803 l 48.00292,-49.99515 c 64.6041,-70.749 108.1917,-104.0034 178.98929,-144.00877 57.99998,-39 111.0039,-71.99415 164.00396,-98.99415 105.8394,-63.74325 126.46,-71.3958 254.0038,-105 16.0001,-3 47.9932,-11.00677 72.9932,-17.00677 25,-6 68.0097,-14.9883 95.0097,-17.9883 28.0001,-4.00005 57.2469,-10.68457 97.4561,-14.70705 47.6209,-4.87725 84.7407,-6.744 172.5439,-9.30172 l 109.9952,6.00585 c 125,6 162.9931,11.99415 327.9931,53.99414 20,6 119.9777,37.76625 190.8252,69.25778 304.0095,171.81112 335.5158,200.36992 552.1875,445.73727 41,54 73.9893,100.0079 73.9893,103.0079 0,3 13.0078,23.9922 28.0078,46.9921 26,39 81.9931,150.00492 102.9931,205.00492 5,12 13.003,32 18.0029,45 18,46 30.9962,89.0049 60.9962,205.0049 19.9999,80 24.0088,133.9971 24.0088,326.997 0,187 -5.9991,254.9952 -33.9991,364.9952 -6,25 -14.0068,57.0078 -17.0068,73.0078 -3,15 -9.0039,30.0029 -14.0039,33.0029 -5,3 -8.9942,13.9903 -8.9942,24.9902 0,10.0001 -3.9941,27.002 -8.9941,37.002 -5,9 -17.001,34.997 -26.001,56.9971 -68,163.9999 -200.0097,360.9999 -320.0097,479.9999 -53,52 -167,143.0117 -240,192.0117 -91,60 -252.0019,142.9981 -277.002,142.9981 -7.9999,0 -17.9941,3.998 -23.9941,7.998 -11,10 -66.999,26.9961 -198.999,60.9961 -22,6 -60.9971,12.9961 -86.9971,15.9961 -27,4 -48.0029,10.0108 -48.0029,16.0108 0,7 -68.8989,9.7878 -148.9307,9.2871 z m -81.1084,-160.2832 c 56.1621,0.1465 136.7823,-3.7549 183.0322,-10.0049 116,-17 224.0069,-41 272.0069,-60 11,-5 38,-15.002 60,-22.002 53,-17 218.9951,-103.0019 274.9951,-142.0019 259,-180 465.0068,-464.001 542.0068,-746.001 65,-239 71.997,-420 26.997,-645 -12,-59 -27.9941,-122 -38.9941,-149.9999 -4,-11.0001 -13.0097,-36.0049 -20.0097,-55.0049 -23,-65 -93.9913,-204.9952 -140.9912,-274.99512 -117,-175 -276.0069,-324.99903 -452.0069,-423.99903 -89,-50.00002 -104.997,-57.99517 -161.997,-79.99515 -33,-12.99997 -68.9952,-26.01075 -79.9952,-31.0107 -19,-8.00002 -74.0048,-22.99027 -145.0048,-39.99029 -142,-34.99995 -426.0049,-35.00385 -565.0049,0.99615 -131,33.99997 -116.9902,30.00389 -189.9903,59.00384 -66,26.00003 -84.0097,34.98833 -140.0097,62.9883 -324.00003,163.00005 -605.99705,518.002 -686.99705,862.002 -25.99999,109.9999 -29.99511,153.0097 -34.99511,305.0097 -4,154 3.00098,248.9951 26.00098,334.9951 39,145 44.99999,160 105.00001,285 51,107 82.99605,159.0059 150.99607,246.0059 141.99997,181 362.9951,347.9883 559.9951,422.9882 33,12 68.0068,27.0069 77.0068,32.0069 10.0001,5 28.9971,8.9941 41.9971,8.9941 14,0 27,4.0088 30,9.0088 6,9 24.0049,12.9961 160.0049,30.9961 44,6 81.9941,12 83.9941,15 3.375,3.375 28.2657,4.9219 61.9629,5.0098 z m 37.8369,-342.1289 c -9.5469,-0.062 -19.0527,-1.628 -27.8027,-4.878 -38,-15 -38.9902,-29.0029 -39.9903,-393.0029 0,-195 -3.998,-360.0058 -7.998,-366.0058 -4,-6 -21.0127,-17.9971 -38.0127,-26.9971 -45,-23 -107.9922,-98.9902 -121.9922,-144.9902 -34.9999,-117 18.0029,-248.0069 123.0029,-302.0069 39,-20 62.9961,-25.0048 120.9962,-25.0048 81.9999,0 74.0038,4.0009 194.0038,-108.9991 41,-39 130.9991,-123.9941 198.9991,-188.9941 103.9999,-99 127.9951,-116.9971 154.9951,-116.9971 49,1.0001 71.001,23.9932 71.001,72.9932 0,40 -5.0001,46.002 -90,127.002 -49,47 -128.0049,120.996 -175.0049,165.996 -47,44 -101,95.002 -120,112.002 l -33.9991,30.9961 18.003,38.0127 c 24,49 31.0068,136.9902 17.0068,189.9902 -15,55 -66.001,120.0078 -116.001,148.0078 l -40.0048,22.002 -4.9952,358.9892 c -3,197 -9.0039,367.0068 -14.0038,377.0068 -10.5,21.75 -39.5625,35.0655 -68.2032,34.878 z"
       id="path4"
       inkscape:connector-curvature="0" />
  </g>
</svg>
